<svg height="456.07" viewBox="0 0 474.906 456.07" width="474.906" xmlns="http://www.w3.org/2000/svg"><ellipse cx="230.549" cy="444.333" fill="#dae6fa" opacity=".38" rx="230.407" ry="11.737"/><path d="m170.712 226.157a167.276 167.276 0 0 1 154.283-102.61c1.668 0 3.329.032 4.985.08a124.07 124.07 0 1 1 161.065 187.073 167.355 167.355 0 0 1 -216.692 139.5 124.089 124.089 0 1 1 -103.641-224.043z" fill="#286ade" opacity=".17" transform="translate(-86.845 -56.437)"/><path d="m441.164 420.988s-9.491 15.925-24.172 15.061-11.139-19.7-22.813-38.1-16.261-12.666-29.931-21.544-5.936-18.643-15.341-37.991a49.222 49.222 0 0 0 -27.5-24.736s30.153-9.449 46.895 5.724 10.585 27.526 26.523 35.449 58.45 4.108 62.679 25.1-16.34 41.037-16.34 41.037z" fill="#5193f4" transform="translate(-298.384 6.542)"/><path d="m456.283 412.854a47.3 47.3 0 0 0 -28.322-24.571c-21.213-6.965-30.092-7.923-42.576-28.324s-29.972-48.814-57.319-46.872" fill="none" stroke="#fff" stroke-miterlimit="10" transform="translate(-305.047 7.138)"/><path d="m468.7 396.365s9.005-14.316 1.115-24.711-22.288.886-43.715.775-18.761-6.12-33.017-12.081-18.844 4.225-39.985 6.223-34.565-8.827-34.565-8.827 6.6 26.524 27.742 31.844 28.713-4.9 43.257 3.169 31.99 41.084 52.01 34.525 27.158-30.917 27.158-30.917z" fill="#286ade" transform="translate(-309.732 19.165)"/><path d="m471.643 406.056s-18.53 2.884-34.824-9.5-21.44-18.475-44.98-18.256-56.375.45-68.033-20.551" fill="#286ade" stroke="#fff" stroke-miterlimit="10" transform="translate(-315.001 19.165)"/><path d="m387.42 417.111s-13.887 12.012-27.578 6.43-4.573-22.286-10.051-43.506-11.591-17.28-21.871-30.135.052-19.593-2.979-40.981a50.548 50.548 0 0 0 -18.591-32.368s31.551.83 42.831 20.643 1.654 29.521 14.385 42.2 54.309 22.862 51.919 44.124-28.065 33.593-28.065 33.593z" fill="#286ade" transform="translate(-236.795 -2.653)"/><path d="m411.808 412.711a48.484 48.484 0 0 0 -19.418-32.477c-18.038-13.485-26.185-17.274-31.821-40.659s-13.583-55.986-40.172-63.02" fill="none" stroke="#fff" stroke-miterlimit="10" transform="translate(-250.843 -2.653)"/><path d="m139.739 418.336s7.815 14.974 19.9 14.162 9.173-18.525 18.785-35.817 13.39-11.908 24.646-20.257 4.887-17.526 12.633-35.718 22.647-23.256 22.647-23.256-24.829-8.885-38.615 5.382-8.716 25.879-21.84 33.328-48.129 3.863-51.612 23.595 13.456 38.581 13.456 38.581z" fill="#5193f4" transform="translate(169.485 7.602)"/><path d="m125.815 410.688s5.854-16.553 23.32-23.1 24.778-7.45 35.059-26.632 24.681-45.894 47.2-44.067" fill="none" stroke="#fff" stroke-miterlimit="10" transform="translate(176.446 8.162)"/><path d="m120.174 395.186s-7.414-13.46-.917-23.233 18.352.832 36 .729 15.448-5.754 27.188-11.358 15.516 3.971 32.925 5.85a38.265 38.265 0 0 0 28.463-8.3s-5.436 24.937-22.845 29.939-23.643-4.607-35.618 2.979-26.343 38.626-42.827 32.459-22.369-29.065-22.369-29.065z" fill="#286ade" transform="translate(175.716 19.469)"/><path d="m116.589 404.3a37.064 37.064 0 0 0 28.676-8.936c13.418-11.647 17.654-17.37 37.038-17.163s46.42.424 56.021-19.321" fill="none" stroke="#fff" stroke-miterlimit="10" transform="translate(181.22 19.469)"/><path d="m179.208 414.691s11.435 11.293 22.709 6.045 3.764-20.954 8.276-40.9 9.543-16.247 18.01-28.328-.042-18.422 2.454-38.531 15.307-30.43 15.307-30.43-25.98.78-35.268 19.408-1.363 27.755-11.845 39.677-44.72 21.495-42.751 41.485 23.108 31.574 23.108 31.574z" fill="#5193f4" transform="translate(123.556 -1.044)"/><path d="m156.018 410.555a47.811 47.811 0 0 1 15.99-30.535c14.853-12.678 21.562-16.241 26.2-38.228s11.184-52.637 33.078-59.25" fill="none" stroke="#fff" stroke-miterlimit="10" transform="translate(138.23 -1.044)"/><g transform="translate(121.454 41.043)"><rect fill="#cad3ff" height="407.005" rx="13.961" width="197.466"/><path d="m0 0h84.688a14.309 14.309 0 0 1 14.312 14.309v392.7a0 0 0 0 1 0 0h-99a0 0 0 0 1 0 0v-407.009a0 0 0 0 1 0 0z" fill="#cad3ff" transform="translate(98.468)"/><rect fill="#faf0fc" height="334.256" rx="2.775" width="184.523" x="6.727" y="11.415"/><path d="m0 0h81.8a0 0 0 0 1 0 0v3.962a13.031 13.031 0 0 1 -13.032 13.031h-55.737a13.031 13.031 0 0 1 -13.031-13.031v-3.962a0 0 0 0 1 0 0z" fill="#cad3ff" transform="translate(57.301 6.486)"/><ellipse cx="99.05" cy="375.985" fill="#fff" rx="14.301" ry="13.873"/></g><path d="m144.138 78.989h153.733v90.581h-153.733z" fill="#286ade" opacity=".09"/><path d="m142.916 245.522h156.176v49.046h-156.176z" fill="#286ade" opacity=".43"/><path d="m227.94 309.696h72.127v49.046h-72.127z" fill="#286ade" opacity=".28"/><path d="m145.193 309.696h71.933v49.046h-71.933z" fill="#286ade" opacity=".28"/><path d="m225.744 182.324h72.127v49.046h-72.127z" fill="#286ade" opacity=".28"/><path d="m142.997 182.324h71.933v49.046h-71.933z" fill="#286ade" opacity=".28"/><path d="m103.831 418.967 54.244-1.16s-.69-2.617-1.526-5.777c-.977-3.686-2.148-8.112-2.647-9.984-.925-3.48-3.938-8.578-7.187-8.116s-9.04-1.621-14.6 2.32-11.125 9.5-19.7 12.284a11.993 11.993 0 0 0 -7.422 6.086 10.813 10.813 0 0 0 -1.162 4.347z" fill="#1f1d51" transform="translate(277.655 28.85)"/><path d="m160.883 189.248s15.067 45.821 17.85 48.835c.834.9 4.335 1.021 8.838.749 10.563-.642 26.629-3.453 26.629-3.453a67.6 67.6 0 0 0 4.4-16.227c.665-4.184 1.165-12.42 1.524-20.683.514-11.884.738-23.824.738-23.824s-26.831 31.991-31.7 34.308l-15.067-26.2z" fill="#cad3ff" transform="translate(142.481 -30.039)"/><path d="m161.465 233.785c10.563-.642 26.629-3.453 26.629-3.453a67.6 67.6 0 0 0 4.4-16.227c.665-4.184 1.165-12.42 1.524-20.683a22.339 22.339 0 0 0 -9.4 13.728c-2.782 12.289-2.55 13.214-10.431 15.3-5.634 1.491-10.438 7.839-12.722 11.335z" fill="#b9c3f2" opacity=".5" transform="translate(168.586 -24.993)"/><path d="m124.728 369.291 1.214 33.279a7.027 7.027 0 0 1 -5.684 7.217 5.485 5.485 0 0 1 -2.271-.041c-3.889-.943-4.246-6.308-4.246-6.308l-1.1-33.982z" fill="#f6b6a6" transform="translate(298.608 22.268)"/><path d="m150.972 419.206 59.112-.462s-.481-2.015-.936-4.783a43.965 43.965 0 0 1 -.686-10.982c.7-6.026-2.085-8.577-4.4-9.5s-7.881-.466-12.054-.466-7.418 3.248-13.906 8.578-16.227 5.334-20.4 6.026c-2.2.368-3.952 3.579-5.115 6.526a41.379 41.379 0 0 0 -1.615 5.063z" fill="#1f1d51" transform="translate(165.836 28.611)"/><path d="m167.153 370.394-2.883 29.646a5.362 5.362 0 0 1 -6.245 4.82 4.572 4.572 0 0 1 -.609-.159c-.189-.062-.372-.131-.546-.2a5.389 5.389 0 0 1 -3.341-5.118l.641-30.149z" fill="#f6b6a6" transform="translate(205.524 22.253)"/><path d="m130.251 395 5.8 9.273-9.736 4.173-3.477-7.186z" fill="#f99345" transform="translate(275.575 29.176)"/><path d="m103.831 415.1 54.244-1.16s-.69-2.617-1.526-5.776l-51.327 2.536-.235.058a10.813 10.813 0 0 0 -1.156 4.342z" fill="#f99345" transform="translate(277.655 32.715)"/><path d="m150.972 414.861 59.112-.462s-.481-2.015-.936-4.783l-6.17-.551-50.4.731a41.38 41.38 0 0 0 -1.606 5.065z" fill="#f99345" transform="translate(165.836 32.957)"/><path d="m176.62 394.025 5.257 8.842-11.231 3.823-2.987-7.169z" fill="#f99345" transform="translate(172.873 28.915)"/><path d="m179.232 262.694s-8.693 70.588-9.389 89.018-4.173 26.426-4.173 35.12-.7 15.647-.7 15.647l-28.166-.7s.7-70.239 1.043-76.152 3.478-63.285 3.478-63.285z" fill="#1f1d51" transform="translate(214.656 -6.471)"/><path d="m108.581 266.949s3.478 20.863 8.346 35.12 21.558 82.758 22.949 89.365 3.13 14.255 3.13 14.255h23.994s-.348-15.647-.348-27.469 1.043-34.424-1.391-47.986-1.044-35.12-.7-46.943-3.129-26.426-3.129-26.426z" fill="#1f1d51" transform="translate(262.705 -7.944)"/><path d="m108.306 302.285s3.131 2.782 9.389 4.173 13.563-1.736 23.3-7.3 12.52 7.3 24.342 3.476 19.821-20.514 19.821-20.514a153.47 153.47 0 0 0 -4.174-23.3c-3.475-13.906-4.867-53.547-6.955-62.936s-4.867-12.171-11.473-18.777c-5.01-5.01-12.219-7.62-15.409-8.589-1.02-.308-1.63-.452-1.63-.452s-12.406 2.962-20.059 5.242a28.748 28.748 0 0 0 -5.674 2.063 16.58 16.58 0 0 0 -6.608 9.734c-1.391 5.216-2.782 22.6-1.736 31.293s.345 36.862.345 45.2-3.479 40.687-3.479 40.687z" fill="#cad3ff" transform="translate(244.898 -31.807)"/><path d="m147.854 186.058s8.344-7.649 15.995-3.478 11.784 22.525 12.827 40.259-1.352 46.324-11.436 45.976-55.983-32.339-55.983-32.339l9.041-14.255 33.729 12.17s-8.345-41.03-4.173-48.333z" fill="#cad3ff" transform="translate(251.945 -28.241)"/><path d="m167.965 214.053-6.607-2.318-5.911 12.75 3.477 3.825z" fill="#a7b4f6" transform="translate(202.278 -20.072)"/><path d="m162.371 204.609 19.7 9.967-4.52 10.548s-14.72-7.418-15.879-12.4.699-8.115.699-8.115z" fill="#f6b6a6" transform="translate(180.75 -21.986)"/><path d="m212.234 182.241-4.173-5.679-10.316 4.752 1.275 7.418z" fill="#a7b4f6" transform="translate(104.344 -29.523)"/><path d="m201.217 164.238s2.667-2.667 5.217-.464 9.272 17.154 9.272 17.154l-9.968 4.288s-2.666-11.011-3.824-14.488a15.3 15.3 0 0 1 -.697-6.49z" fill="#f6b6a6" transform="translate(96.583 -33.194)"/><path d="m139.727 173.307c7.653-2.28 20.059-5.242 20.059-5.242s.61.143 1.63.452a59.629 59.629 0 0 1 -5.8 13.111c-4.287 6.955-14.835 6.375-16.689 2.782-1.798-3.472.631-10.619.8-11.103z" fill="#a7b4f6" transform="translate(230.625 -31.807)"/><path d="m156.985 149.794 1.392 23.877s-4.52 11.127-9.621 12.982-7.418.463-8.229-1.275 1.854-7.881 1.854-7.881l.348-9.505-.348-3.593z" fill="#f6b6a6" transform="translate(230.992 -36.717)"/><path d="m176.073 136.836s3.13 32.106-9.5 36.975-27.47-11.243-26.311-30.136 16.459-20.052 20.052-19.82 14.832 4.403 15.759 12.981z" fill="#f6b6a6" transform="translate(213.179 -43.694)"/><path d="m187.745 156.089a13.633 13.633 0 0 1 -4.057-17.154l-3.593 6.606.7-10.664s-5.331 8.693-11.707 9.852c0 0 3.478-5.1 3.593-8.577 0 0-7.3 8.461-18.313 8.114s-18.66-2.55-20.632-11.822c0 0 17.966-3.014 23.645-8.461 0 0-9.156-.348-11.707-3.245 0 0 11.011 1.391 17.619-1.044s19.008-1.738 21.558.7a11.221 11.221 0 0 1 2.9 6.374s7.766.117 9.621 4.753.057 32.454-8.636 36.975l-.463-6.2.754-4.694z" fill="#44004e" transform="translate(199.768 -45.213)"/><path d="m134.3 148.331a7.824 7.824 0 1 0 7.823-7.823 7.824 7.824 0 0 0 -7.823 7.823z" fill="#f6b6a6" transform="translate(247.131 -39.212)"/><path d="m154.016 144.45a2.086 2.086 0 1 0 2.087-2.086 2.086 2.086 0 0 0 -2.087 2.086z" fill="#36203a" transform="translate(213.87 -38.713)"/><path d="m164.248 148.335a1.739 1.739 0 1 0 1.739-1.738 1.739 1.739 0 0 0 -1.739 1.738z" fill="#36203a" transform="translate(191.352 -37.576)"/><path d="m156.954 153.037a7.673 7.673 0 1 0 -7.673-7.673 7.682 7.682 0 0 0 7.673 7.673zm0-14.613a6.939 6.939 0 1 1 -6.94 6.94 6.948 6.948 0 0 1 6.94-6.941z" fill="#36203a" transform="translate(213.439 -39.969)"/><path d="m169.017 157.277a7.108 7.108 0 1 0 -7.109-7.107 7.115 7.115 0 0 0 7.109 7.107zm0-13.481a6.374 6.374 0 1 1 -6.374 6.374 6.382 6.382 0 0 1 6.374-6.37z" fill="#36203a" transform="translate(185.922 -38.526)"/><path d="m0 0h.734v2.469h-.734z" fill="#36203a" transform="matrix(-.34428245 -.93886612 .93886612 -.34428245 361.213 109.172)"/><path d="m157.382 154.667-4.791 2.626s2.01 3.245 4.946 1.855-.155-4.481-.155-4.481z" fill="#36203a" transform="translate(215.062 -35.407)"/><path d="m148.031 152.075c.406.893 1.98 1.052 3.514.354s2.449-1.988 2.043-2.881-1.98-1.052-3.514-.354-2.449 1.987-2.043 2.881z" fill="#d86c56" opacity=".52" transform="translate(226.089 -36.995)"/><path d="m160.737 158.372c.406.893 1.98 1.052 3.514.354s2.449-1.989 2.043-2.883-1.98-1.052-3.514-.354-2.449 1.989-2.043 2.883z" fill="#d86c56" opacity=".52" transform="translate(197.265 -35.303)"/><path d="m125.847 398.97 2.04-.816a68 68 0 0 1 -3.745-24.253 162.151 162.151 0 0 0 -.965-26.161l-.431-4.569c-.825-8.87-2.355-19.866-3.584-28.7-.832-5.98-1.489-10.7-1.63-12.653-.351-4.938-4.726-19.117-4.913-19.72l-2.1.651c.046.145 4.486 14.538 4.821 19.225.145 2.025.807 6.78 1.644 12.8 1.227 8.813 2.753 19.779 3.573 28.6l.431 4.574a160.444 160.444 0 0 1 .957 25.9 68.9 68.9 0 0 0 3.902 25.122z" fill="#121139" transform="translate(299.359 -1.163)"/><path d="m132.419 273.525 2.937 18.855s-10.046-2.319-12.519-7.573a28.911 28.911 0 0 1 -2.318-11.436s9.581 2.781 11.9.154z" fill="#286ade" transform="translate(279.202 -3.508)"/><path d="m157.622 182.866s-5.565 4.172-5.565 13.908 8.346 38.25 8.346 38.25l-32.454-12.286 27.354 6.491s-13.677-38.482 2.319-46.363z" fill="#a9b3e5" opacity=".5" transform="translate(244.728 -27.829)"/><path d="m155.649 153.388s-1.932 11.512-12.249 13.638l-.348 9.505s12.287 1.12 12.597-23.143z" fill="#dd988a" transform="translate(230.319 -35.751)"/><path d="m137.375 147.332s3.361-3.825 5.911-2.9a2.336 2.336 0 0 1 1.507 3.245s-2.318-2.781-3.362-1.623.7 2.666.7 2.666.349 1.97-.926 1.275a43.264 43.264 0 0 1 -3.83-2.663z" fill="#dd988a" transform="translate(248.168 -38.196)"/><path d="m161.294 210.273.927 13.329 4.52-10.548z" fill="#dd988a" transform="translate(196.083 -20.464)"/><path d="m208.193 173.151-7.341 9.427 9.968-4.289z" fill="#dd988a" transform="translate(101.817 -30.44)"/><path d="m166.432 320.529-11.127-28.861-13.561-9.04s12.866 15.647 13.561 23.993-.348 19.124.348 28.86 6.606 23.645 6.606 23.645z" fill="#121139" transform="translate(221.197 -1.021)"/><path d="m125.667 374.448-12.286 9.041-.232-9.5z" fill="#dd988a" transform="translate(298.241 23.53)"/><path d="m166.669 372.871-12.518 13.909-.348-14.257z" fill="#dd988a" transform="translate(205.661 23.137)"/><path d="m148.319 262.018-4.392-21.472s-3.66 16.592-9.76 16.349-26.109-17.326-26.109-17.326 15.373 20.986 22.692 23.426a37.978 37.978 0 0 1 12.689 7.564z" fill="#a9b3e5" opacity=".5" transform="translate(282.049 -12.592)"/><path d="m190.845 145.167-3.469 16.833-5.378.867 4.684-20.3z" fill="#286ade" transform="translate(145.713 -38.66)"/><path d="m185.532 147.089-3.123-.81-.116 2.082 2.66.81z" fill="#44004e" transform="translate(150.65 -37.662)"/><path d="m186.353 150.507-3.123-.81-.116 2.082 2.66.81z" fill="#44004e" transform="translate(148.789 -36.743)"/><path d="m187.036 153.721-3.123-.81-.116 2.082 2.66.81z" fill="#44004e" transform="translate(147.237 -35.879)"/><path d="m189.791 171.5 19.009-.352 12.35-.22 7.779-.143 1.143-.022 22.371-.406 10.043-.187 3.3-23.415-30.051-14.2-.846-.407-6.637-3.131-10.087-4.769-17.492-8.263-.593 3.033z" fill="#286ade" transform="translate(60.89 -45.801)"/><path d="m189.791 119.024c1.978 2.286 5.363 5.977 11.054 11.767 11.975 12.142 21 8.329 25.854 15.438s.175 12.845 6.932 15.966a19.352 19.352 0 0 1 8.527 8.163l10.042-.187 3.3-23.414-30.051-14.2-.846-.407-6.635-3.131-10.088-4.768-17.492-8.263z" fill="#44004e" opacity=".33" transform="translate(71.173 -45.801)"/><path d="m200.781 158.88.4 26.733 3.142.275 2.967.264 2.461-9.164 5.779-18.382-5.527.1z" fill="#286ade" transform="translate(97.2 -34.349)"/><path d="m241.049 171.754c1.473.324 3.124-.558 4.809-2.4 3.749-4.094 7.643-12.919 10.019-23.53 2.209-9.862 2.567-18.877 1.283-24.366v-.011c-.714-3.056-1.941-5.009-3.648-5.388-4.742-1.072-11.38 10.543-14.816 25.916s-2.389 28.718 2.353 29.779z" fill="#286ade" transform="translate(9.295 -45.801)"/><path d="m237.4 168.2c3.749-4.094 7.643-12.919 10.019-23.53 2.209-9.862 2.567-18.877 1.283-24.366-3.748 4.106-7.642 12.908-10.018 23.518-2.206 9.871-2.551 18.896-1.284 24.378z" fill="#fff" transform="translate(17.748 -44.643)"/><path d="m254.133 132.695-12.552-2.255-4.481 15.411 12.864 5.523s3.936-10.352 4.169-18.679z" fill="#286ade" transform="translate(12.509 -41.918)"/><path d="m247.079 137.463c-1.236 4.255-1.175 8.015.136 8.4s3.376-2.761 4.612-7.016 1.175-8.015-.136-8.4-3.376 2.76-4.612 7.016z" fill="#2e53be" transform="translate(2.399 -41.925)"/><path d="m218.553 169.184 12.35-.217c3.077-8.716 7.735-24.87 7.1-41.348l-10.086-4.7.088.292s1.034 15.059-2.087 27.212a84.465 84.465 0 0 1 -7.365 18.761z" fill="#44004e" transform="translate(52.119 -43.94)"/><path d="m219.327 169.4 12.35-.219c3.077-8.834 7.735-25.206 7.1-41.907l-10.089-4.774.089.3s1.033 15.263-2.088 27.58a86.263 86.263 0 0 1 -7.362 19.02z" fill="#fff" transform="translate(50.362 -44.05)"/><path d="m213.477 167.364 1.142-.022c1.45-6.318 5.231-24.063 5.659-38.2l-.846-.407c-.143 3.084-1.374 27.765-5.955 38.629z" fill="#f99345" transform="translate(76.342 -42.377)"/><path d="m189.791 119.024c1.978 2.286 5.363 5.977 11.054 11.767 11.975 12.142 21 8.329 25.854 15.438s.175 12.845 6.932 15.966a19.352 19.352 0 0 1 8.527 8.163l10.042-.187 3.3-23.414-30.051-14.2-.846-.407-6.635-3.131-10.088-4.768-17.492-8.263z" fill="#286ade" opacity=".33" transform="translate(71.173 -45.801)"/><path d="m191.767 136.411-7.167 31.228h11.1l6.246-26.833z" fill="#fff" transform="translate(131.317 -40.313)"/><path d="m205.137 158.859.4 26.733 3.141.274a44.233 44.233 0 0 0 1.44-7.439 24.735 24.735 0 0 1 2.077-11.69 32.633 32.633 0 0 0 2.164-8.054z" fill="#44004e" opacity=".33" transform="translate(92.845 -34.328)"/><path d="m210.79 163.3s4.047-.117 4.972 4.741-3.122 8.328-5.2 7.4-4.399-12.141.228-12.141z" fill="#f6b6a6" transform="translate(87.544 -33.087)"/><path d="m277.031 121.867h182.644v70.084h-.012l.109 16.295-14.327-16.295h-168.414z" fill="#f99345" transform="translate(-243.785 -44.223)"/><ellipse cx="22.693" cy="22.693" fill="#286ade" rx="22.693" ry="22.693" transform="matrix(-.926 -.379 .379 -.926 191.698 142.741)"/><path d="m316.214 142.638-.244 17.569-13.664-9.76z" fill="#fff" transform="translate(-132.293 -38.641)"/><path d="m47.842 110.036h104.114v5.303h-104.114z" fill="#fff"/><path d="m103.408 109.838h48.548v5.501h-48.548z" fill="#286ade"/><ellipse cx="25.757" cy="25.757" fill="#286ade" rx="25.757" ry="25.757" transform="matrix(-.26 -.966 .966 -.26 99.604 263.158)"/><path d="m356.7 243.6s8.967-4.271 10.249 1.067-2.776 9.395-8.541 10.676a56.33 56.33 0 0 1 -12.171 1.067s-3.63-13.665-1.495-18.789 5.978-5.552 8.541-4.271 3.417 10.25 3.417 10.25z" fill="#fff" transform="translate(-236.252 -14.427)"/><ellipse cx="19.527" cy="19.527" fill="#f99345" rx="19.527" ry="19.527" transform="matrix(-.78282541 -.62224142 .62224142 -.78282541 318.829 67.114)"/><path d="m317.656 32.963h4.717v13.659h-4.717z" fill="#fff"/><path d="m309.369 32.96h4.717v13.659h-4.717z" fill="#fff"/><path d="m436.634 203.664v20.306a5.636 5.636 0 0 1 -5.634 5.636h-33.189l-9 8.1-.148-8.1v-25.942a5.636 5.636 0 0 1 5.636-5.637h36.701a5.637 5.637 0 0 1 5.634 5.637z" fill="#f99345" transform="translate(-362.271 -23.756)"/><path d="m396.853 210.666a2.6 2.6 0 1 0 2.6-2.6 2.6 2.6 0 0 0 -2.6 2.6z" fill="#fff" transform="translate(-338.087 -21.058)"/><path d="m405.707 210.7a2.6 2.6 0 1 0 2.6-2.6 2.6 2.6 0 0 0 -2.6 2.6z" fill="#fff" transform="translate(-358.174 -21.049)"/><path d="m414.212 210.7a2.6 2.6 0 1 0 2.6-2.6 2.6 2.6 0 0 0 -2.6 2.6z" fill="#fff" transform="translate(-377.468 -21.049)"/><path d="m83 136.124v20.306a5.635 5.635 0 0 0 5.636 5.636h33.186l9.005 8.1.147-8.1v-25.942a5.635 5.635 0 0 0 -5.636-5.636h-36.7a5.635 5.635 0 0 0 -5.638 5.636z" fill="#286ade" transform="translate(331.196 -41.906)"/><path d="m113.714 143.125a2.6 2.6 0 1 1 -2.6-2.6 2.6 2.6 0 0 1 2.6 2.6z" fill="#fff" transform="translate(316.072 -39.208)"/><path d="m104.86 143.158a2.6 2.6 0 1 1 -2.6-2.6 2.6 2.6 0 0 1 2.6 2.6z" fill="#fff" transform="translate(336.16 -39.199)"/><path d="m96.356 143.162a2.6 2.6 0 1 1 -2.6-2.6 2.6 2.6 0 0 1 2.6 2.6z" fill="#fff" transform="translate(355.454 -39.199)"/><path d="m185.119 277.771v20.307a5.636 5.636 0 0 0 5.636 5.636h33.187l9 8.1.148-8.1v-25.943a5.636 5.636 0 0 0 -5.637-5.636h-36.7a5.636 5.636 0 0 0 -5.634 5.636z" fill="#f99345" transform="translate(99.503 -3.841)"/><path d="m215.839 284.774a2.6 2.6 0 1 1 -2.6-2.6 2.6 2.6 0 0 1 2.6 2.6z" fill="#fff" transform="translate(84.379 -1.143)"/><path d="m206.985 284.807a2.6 2.6 0 1 1 -2.6-2.6 2.6 2.6 0 0 1 2.6 2.6z" fill="#fff" transform="translate(104.467 -1.134)"/><path d="m198.48 284.809a2.6 2.6 0 1 1 -2.6-2.6 2.6 2.6 0 0 1 2.6 2.6z" fill="#fff" transform="translate(123.761 -1.134)"/><path d="m0 0h9.272v9.272h-9.272z" fill="#fff" transform="matrix(-.70710678 .70710678 -.70710678 -.70710678 107.513 185.772)"/><path d="m0 0h9.272v9.272h-9.272z" fill="#fff" transform="matrix(-.70710678 .70710678 -.70710678 -.70710678 344.251 256.458)"/><path d="m0 0h9.272v9.272h-9.272z" fill="#fff" transform="matrix(-.70710678 .70710678 -.70710678 -.70710678 361.523 28.303)"/><path d="m0 0h9.272v9.272h-9.272z" fill="#fff" transform="matrix(-.70710678 .70710678 -.70710678 -.70710678 116.391 37.705)"/><path d="m0 0h9.272v9.272h-9.272z" fill="#fff" transform="matrix(-.70710678 .70710678 -.70710678 -.70710678 219.414 6.557)"/><path d="m0 0h9.272v9.272h-9.272z" fill="#fff" transform="matrix(-.70710678 .70710678 -.70710678 -.70710678 45.98 280.787)"/><path d="m0 0h9.272v9.272h-9.272z" fill="#fff" transform="matrix(-.707 .707 -.707 -.707 463.409 332.433)"/><path d="m0 0h9.272v9.272h-9.272z" fill="#fff" transform="matrix(-.70710678 .70710678 -.70710678 -.70710678 460.346 186.128)"/><g fill="#f99345"><path d="m95.51 257.4a2.6 2.6 0 1 1 -2.6-2.6 2.6 2.6 0 0 1 2.6 2.6z" transform="translate(357.372 -8.5)"/><path d="m86.656 257.43a2.6 2.6 0 1 1 -2.6-2.6 2.6 2.6 0 0 1 2.6 2.6z" transform="translate(377.459 -8.491)"/><path d="m78.152 257.432a2.6 2.6 0 1 1 -2.6-2.6 2.6 2.6 0 0 1 2.6 2.6z" transform="translate(396.754 -8.491)"/><path d="m397.3 107.978a4.057 4.057 0 1 1 -4.057-4.057 4.057 4.057 0 0 1 4.057 4.057z" transform="translate(-323.599 -49.045)"/><path d="m383.477 108.029a4.057 4.057 0 1 1 -4.056-4.057 4.057 4.057 0 0 1 4.056 4.057z" transform="translate(-292.246 -49.031)"/><path d="m370.2 108.033a4.057 4.057 0 1 1 -4.057-4.057 4.056 4.056 0 0 1 4.057 4.057z" transform="translate(-262.131 -49.03)"/><path d="m425.665 295.19a4.057 4.057 0 1 1 -4.057-4.057 4.057 4.057 0 0 1 4.057 4.057z" transform="translate(-387.961 1.264)"/><path d="m411.847 295.241a4.057 4.057 0 1 1 -4.057-4.057 4.058 4.058 0 0 1 4.057 4.057z" transform="translate(-356.608 1.278)"/><path d="m398.572 295.245a4.057 4.057 0 1 1 -4.056-4.057 4.056 4.056 0 0 1 4.056 4.057z" transform="translate(-326.494 1.279)"/><path d="m152.756 105.365a4.057 4.057 0 1 1 -4.057-4.057 4.057 4.057 0 0 1 4.057 4.057z" transform="translate(231.195 -49.747)"/><path d="m138.938 105.416a4.057 4.057 0 1 1 -4.057-4.056 4.057 4.057 0 0 1 4.057 4.056z" transform="translate(262.548 -49.733)"/><path d="m125.664 105.42a4.057 4.057 0 1 1 -4.057-4.057 4.057 4.057 0 0 1 4.057 4.057z" transform="translate(292.663 -49.732)"/></g></svg>