<svg height="639.842" viewBox="0 0 1170.845 639.842" width="1170.845" xmlns="http://www.w3.org/2000/svg" xmlns:xlink="http://www.w3.org/1999/xlink"><filter id="a" filterUnits="userSpaceOnUse" height="503.881" width="769.906" x="189.504" y="128.997"><feOffset dy="7"/><feGaussianBlur result="blur" stdDeviation="3.5"/><feFlood flood-color="#576cf6" flood-opacity=".22"/><feComposite in2="blur" operator="in"/><feComposite in="SourceGraphic"/></filter><clipPath id="b"><circle cx="64.637" cy="64.637" r="64.637" transform="matrix(.38761212 -.92182257 .92182257 .38761212 0 119.169)"/></clipPath><linearGradient id="c" gradientUnits="objectBoundingBox" x1=".5" x2=".5" y1="1"><stop offset="0" stop-color="#fff" stop-opacity=".2"/><stop offset=".273" stop-color="#fff" stop-opacity=".208"/><stop offset=".403" stop-color="#fff" stop-opacity=".239"/><stop offset=".503" stop-color="#fff" stop-opacity=".29"/><stop offset=".588" stop-color="#fff" stop-opacity=".361"/><stop offset=".663" stop-color="#fff" stop-opacity=".455"/><stop offset=".73" stop-color="#fff" stop-opacity=".569"/><stop offset=".79" stop-color="#fff" stop-opacity=".702"/></linearGradient><path d="m1190 492.756c5.494-5.4-13.411-10.882-16-11.789-10.018-3.505-22.437-4.594-30.624-12.015-5.384-4.881-5.426-11.591-2.666-17.85 2.9-6.575-2.715-14.125-9.309-16.986s-14.078-2.85-20.924-5.031c-11.847-3.777-20.7-13.754-27.152-24.383s-11.124-22.3-18.135-32.574c-13.937-20.413-36.513-33.979-60.456-40.117s-49.228-5.334-73.6-1.232l-563.424 48.368c-7.767-8.377-20.112-11.225-31.483-10.11s-22.078 5.669-32.581 10.166c-22.969 9.838-47.967 21.62-57.944 44.531-4.459 10.233-6.777 23.18-16.979 27.711-14.789 6.564-15.635-.424-23.447.918-11.914 2.047-16.075 10.974-19.41 19.452-5.433 13.806-47.11 20.943-25.112 20.943s1029.24.001 1029.246-.002z" fill="#ecf3ff" transform="translate(-75.017 122.619)"/><path d="m540.379 532.117c-3.972-45.882-5.186-93.019 8.409-137.02s44.284-84.859 87.671-100.31c19.266-6.86 40.112-8.508 59.268-15.671-30.177 16.129-41.1 53.508-71.764 83.878-20.646 20.444-37.518 33.191-55.258 56.484-25.747 33.8-28.245 72.334-28.326 112.639" fill="#0056ec" transform="translate(401.891 62.354)"/><path d="m694.651 279.116c-47.4 18.6-165.777 92.96-155.445 256.953" fill="none" stroke="#c1c9f7" stroke-miterlimit="10" stroke-width=".75" transform="translate(402.967 62.354)"/><path d="m593.645 287.979a31.482 31.482 0 0 1 14.376-2.8" fill="none" stroke="#c1c9f7" stroke-miterlimit="10" stroke-width=".75" transform="translate(471.489 69.847)"/><path d="m598.67 283.042c-3.822 3.386-6.365 7.949-8.833 12.417q-.741 1.336-1.477 2.673" fill="none" stroke="#c1c9f7" stroke-miterlimit="10" stroke-width=".75" transform="translate(464.913 67.239)"/><path d="m582.272 295.834c8.627-3.05 16.6-3.505 25.651-2.2" fill="none" stroke="#c1c9f7" stroke-miterlimit="10" stroke-width=".75" transform="translate(457.339 79.561)"/><path d="m585.121 287.135a44 44 0 0 0 -5.471 11.522 158.79 158.79 0 0 0 -5.294 19.12" fill="none" stroke="#c1c9f7" stroke-miterlimit="10" stroke-width=".75" transform="translate(447.49 72.331)"/><path d="m569.428 308.717a65.947 65.947 0 0 1 23.669-5.26 43 43 0 0 1 14.25 1.746" fill="none" stroke="#c1c9f7" stroke-miterlimit="10" stroke-width=".75" transform="translate(441.359 92.628)"/><path d="m568.982 295.6c-5.034 13.346-7.531 27.1-6.443 41.4" fill="none" stroke="#c1c9f7" stroke-miterlimit="10" stroke-width=".75" transform="translate(432.475 82.858)"/><path d="m560.067 318.992c7.237-3.077 15.278-3.582 23.142-3.831a70.177 70.177 0 0 1 15.471.745" fill="none" stroke="#c1c9f7" stroke-miterlimit="10" stroke-width=".75" transform="translate(429.712 107.081)"/><path d="m553.285 309.768a151.309 151.309 0 0 0 -.952 26.2c.3 3.99 1 9.311 2.453 13.036" fill="none" stroke="#c1c9f7" stroke-miterlimit="10" stroke-width=".75" transform="translate(419.8 100.49)"/><path d="m552.048 332.261c9.1-3.009 18.948-5.655 28.494-4.868" fill="none" stroke="#c1c9f7" stroke-miterlimit="10" stroke-width=".75" transform="translate(419.735 122.244)"/><path d="m533.6 492.639c11.58-27.911 27.769-48.892 39.349-76.8 4.1-9.868 8.2-19.76 13.328-29.134 21.735-39.74 63.766-68.941 109.026-70.669 25.958-.992 53.416 10.833 77.68 1.34-6.465 26.461-87.693 26.6-179.547 106.315-7.538 6.542-15.545 12.646-21.8 20.417-5.321 6.6-9.524 14.019-13.705 21.4-9.264 16.353-15.063 20.864-24.327 37.219" fill="#5193f4" transform="translate(396.781 108.212)"/><path d="m773.72 316.04c-1.555 3.631-5.563 5.471-9.3 6.764-22.3 7.709-46.537 7.356-69.558 12.534-24.141 5.429-45.718 17.289-64.686 33-20.364 16.867-37.067 37.641-52.383 59.064-14.569 20.379-44.2 65.155-44.2 65.155" fill="none" stroke="#c1c9f7" stroke-miterlimit="10" stroke-width=".75" transform="translate(396.781 108.293)"/><path d="m599.08 326.709c14.556-2.168 27.042 3.5 40.848 8.593" fill="none" stroke="#c1c9f7" stroke-miterlimit="10" stroke-width=".75" transform="translate(478.252 120.977)"/><path d="m617.621 322.676a60.268 60.268 0 0 1 26.591 5.909" fill="none" stroke="#c1c9f7" stroke-miterlimit="10" stroke-width=".75" transform="translate(501.32 116.55)"/><path d="m605.257 334.075c9.892-7.565 21.223-13.737 30.543-16.959" fill="none" stroke="#c1c9f7" stroke-miterlimit="10" stroke-width=".75" transform="translate(485.937 109.632)"/><path d="m625.151 326.239a48.949 48.949 0 0 1 12.282-7.332 6.229 6.229 0 0 1 2.859-.646" fill="none" stroke="#c1c9f7" stroke-miterlimit="10" stroke-width=".75" transform="translate(510.688 111.041)"/><path d="m583.006 336.163c16.127-4.74 32.846-3.519 48.49 2.626" fill="none" stroke="#c1c9f7" stroke-miterlimit="10" stroke-width=".75" transform="translate(458.253 129.728)"/><path d="m588.514 349.85a70.535 70.535 0 0 1 32.406-33.844" fill="none" stroke="#c1c9f7" stroke-miterlimit="10" stroke-width=".75" transform="translate(465.106 108.251)"/><path d="m569.675 347.979a90.486 90.486 0 0 1 39.854-3.144" fill="none" stroke="#c1c9f7" stroke-miterlimit="10" stroke-width=".75" transform="translate(441.667 142.982)"/><path d="m591.869 322.928c-8.717 8.041-12.57 19.928-15.972 31.288-1.228 4.093-1.313 7.785-2.511 11.89" fill="none" stroke="#c1c9f7" stroke-miterlimit="10" stroke-width=".75" transform="translate(446.284 116.863)"/><path d="m575.962 334.847a90.2 90.2 0 0 0 -17.767 54.031" fill="none" stroke="#c1c9f7" stroke-miterlimit="10" stroke-width=".75" transform="translate(427.382 131.692)"/><path d="m560.188 358.569a55.8 55.8 0 0 1 26.959-3.82" fill="none" stroke="#c1c9f7" stroke-miterlimit="10" stroke-width=".75" transform="translate(429.863 156.065)"/><path d="m310.2 402.53c-6.335-11.461-12.884-23.187-22.861-31.667-5.774-4.91-12.5-8.555-19.246-12.013-8.4-4.3-17.686-9.152-27.139-10.173a119.62 119.62 0 0 0 -32.491 1.331c-21.991 3.867-37.931 18.077-46.782 38.387-7.038 16.149-10.13 31.84-15.79 48.523a260.4 260.4 0 0 0 29.553-8.568c7.009-2.489 13.986-5.319 20.034-9.645 6.017-4.307 10.925-9.953 15.77-15.545l22.94-26.465c2.657-3.068 5.355-6.169 8.7-8.458 5.164-3.53 11.571-4.883 17.825-4.881 5.523 0 11.2 1.068 15.806 4.111 6.295 4.154 14.192 9.116 17.938 15.66 4.452 7.776 11.86 12.478 15.741 24.354" fill="#5193f4" transform="translate(-85.594 148.197)"/><path d="m145.89 431.775c11.1-9.708 17.893-22.693 25.943-34.787a157.649 157.649 0 0 1 9.9-13.485 85.983 85.983 0 0 1 35.994-25.756 84.739 84.739 0 0 1 37.884-5.114c6.728.664 13.546 2.211 19.163 5.972a54.794 54.794 0 0 1 6.569 5.474c9.794 9.071 19.8 18.427 25.68 30.411" fill="none" stroke="#c1c9f7" stroke-miterlimit="10" stroke-width=".75" transform="translate(-85.594 153.34)"/><path d="m149.458 382.245a56.572 56.572 0 0 1 19.2-10.8" fill="none" stroke="#c1c9f7" stroke-miterlimit="10" stroke-width=".75" transform="translate(-81.155 177.226)"/><path d="m155.85 362.1a96.937 96.937 0 0 1 28.64-2.044" fill="none" stroke="#c1c9f7" stroke-miterlimit="10" stroke-width=".75" transform="translate(-73.202 162.7)"/><path d="m168.416 350.16a64.957 64.957 0 0 1 12.877 2.193 26.376 26.376 0 0 1 11.248 6.416" fill="none" stroke="#c1c9f7" stroke-miterlimit="10" stroke-width=".75" transform="translate(-57.568 150.745)"/><path d="m187.123 348.4a27.8 27.8 0 0 1 10.779 8.149" fill="none" stroke="#c1c9f7" stroke-miterlimit="10" stroke-width=".75" transform="translate(-34.293 148.553)"/><path d="m186.4 367.655q1.387-3.888 3.117-7.641c1.427-3.1 3.214-6.313 6.272-7.823" fill="none" stroke="#c1c9f7" stroke-miterlimit="10" stroke-width=".75" transform="translate(-35.193 153.271)"/><path d="m180.751 354.561c-2.823 5.862-3.7 12.471-3.986 18.972s-.031 13.034-.756 19.5" fill="none" stroke="#c1c9f7" stroke-miterlimit="10" stroke-width=".75" transform="translate(-48.121 156.221)"/><path d="m170.926 360.869c-1.966 4.789-1.84 10.139-1.842 15.316q-.007 8.049-.53 16.088c-.343 5.263-.947 10.779-3.972 15.1" fill="none" stroke="#c1c9f7" stroke-miterlimit="10" stroke-width=".75" transform="translate(-62.338 164.069)"/><path d="m158.907 372.951c-.242 4.7-.049 9.414-.388 14.1a32.735 32.735 0 0 1 -3.526 13.55" fill="none" stroke="#c1c9f7" stroke-miterlimit="10" stroke-width=".75" transform="translate(-74.268 179.101)"/><path d="m341.974 437.717c-5.893-32.206-17.94-51.122-40.355-71.786-9.939-9.161-22.637-23.2-34.482-29.993-6.012-3.449-12.056-6.914-18.584-9.369a87.216 87.216 0 0 0 -18.761-4.522c-38.647-5.343-78.277 7.356-110.548 28.306a228.066 228.066 0 0 0 86.6 24.621 138.7 138.7 0 0 0 23.49.117c6.809-.624 13.528-1.948 20.33-2.63 17.433-1.75 38.55-3.308 54.04 4.513s20.622 18.261 26.212 34.089c3.606 10.215 9.048 28.694 16.246 37.009" fill="#0056ec" transform="translate(-118.745 114.247)"/><g fill="none" stroke-miterlimit="10"><path d="m119.245 336.164c21.741 3.842 48.945-2.336 70.99-3.566a239.177 239.177 0 0 1 65.148 5.321c28.016 6.228 56.4 18.77 72.39 42.605" stroke="#c1c9f7" stroke-width=".75" transform="translate(-118.745 128.434)"/><path d="m129.009 344.98c4.589.081 8.824-2.361 12.561-5.027s9.031-6.178 13.535-6.416" stroke="#c1c9f7" stroke-width=".75" transform="translate(-106.597 130.063)"/><path d="m139.836 354.2c8.564-.467 15.294-4.8 21.863-10.321s13.842-11.279 22.412-11.591" stroke="#c1c9f7" stroke-width=".75" transform="translate(-93.126 128.511)"/><path d="m154 357.417c17.051-3.618 29.071-22.592 48.773-23.494" stroke="#c1c9f7" stroke-width=".75" transform="translate(-75.508 130.543)"/><path d="m175.73 351.751c9.394-7.693 21.349-11.912 33.335-13.842" stroke="#c1c9f7" stroke-width=".75" transform="translate(-48.468 135.502)"/><path d="m126.421 329.788c1.27-.108 6.456 1.109 10.588 2.038a16.821 16.821 0 0 1 3.178 1.237 76.1 76.1 0 0 1 9.56 5.148" stroke="#c1c9f7" stroke-width=".75" transform="translate(-109.817 125.39)"/><path d="m137.721 324.9c6.513-.1 12.9 2.071 18.584 5.256s10.736 7.363 15.7 11.578" stroke="#c1c9f7" stroke-width=".75" transform="translate(-95.758 119.316)"/><path d="m153.735 321.231c14.147 4.107 23.191 13.835 31.67 25.88" stroke="#c1c9f7" stroke-width=".75" transform="translate(-75.834 114.752)"/><path d="m172.517 322.253a52.833 52.833 0 0 1 22.529 29.847" stroke="#c1c9f7" stroke-width=".75" transform="translate(-52.466 116.024)"/><path d="m190.312 330.954a26.733 26.733 0 0 1 7.956 17.846" stroke="#c1c9f7" stroke-width=".75" transform="translate(-30.326 126.849)"/><path d="m611.231 329.781h111.538a42.238 42.238 0 0 1 42.238 42.24 42.238 42.238 0 0 1 -42.238 42.238h-257.052" stroke="#fff" stroke-dasharray="4" transform="translate(312.325 125.39)"/><path d="m359.129 259.082h-195.708a44.176 44.176 0 0 0 -44.176 44.176 44.175 44.175 0 0 0 44.176 44.174h220.255a33.363 33.363 0 0 1 33.364 33.362 33.362 33.362 0 0 1 -33.364 33.362h-167.395a28.965 28.965 0 0 0 -28.963 28.965 28.963 28.963 0 0 0 28.963 28.963h285.438" stroke="#fff" stroke-dasharray="4" transform="translate(-118.745 37.428)"/><path d="m299.689 202.879a30.2 30.2 0 0 1 30.2-30.2h546.011a50.951 50.951 0 0 1 50.949 50.949 50.95 50.95 0 0 1 -50.949 50.946h-84.641a25.143 25.143 0 0 0 -25.143 25.144 25.143 25.143 0 0 0 25.143 25.144h215.288a33.228 33.228 0 0 1 33.227 33.227 33.227 33.227 0 0 1 -33.227 33.225h-602.293a53.536 53.536 0 0 1 -53.537-53.537 53.536 53.536 0 0 1 53.537-53.537h62.085a25.579 25.579 0 0 0 25.579-25.579 25.579 25.579 0 0 0 -25.579-25.579h-136.446a30.2 30.2 0 0 1 -30.204-30.203z" stroke="#fff" stroke-dasharray="4" transform="translate(105.758 -70.077)"/></g><g transform="translate(25.942 49.371)"><path d="m286.936 102.768s-16.923-70.716 17.436-63.536 45.641 4.615 54.872-19.487 19.487-48.2 46.667-44.1" fill="none" stroke="#e1edff" stroke-dasharray="6" stroke-linecap="round"/><path d="m313.053 306.539a92.355 92.355 0 0 0 0-43.043l-19.5 2.852a72.456 72.456 0 0 0 -7.451-17.947l15.821-11.784a92.994 92.994 0 0 0 -30.438-30.438l-11.785 15.821a72.37 72.37 0 0 0 -17.947-7.448l2.852-19.5a92.264 92.264 0 0 0 -43.041 0l2.85 19.5a72.44 72.44 0 0 0 -17.941 7.448l-11.784-15.82a92.987 92.987 0 0 0 -30.435 30.438l15.821 11.782a72.372 72.372 0 0 0 -7.451 17.947l-19.5-2.852a92.274 92.274 0 0 0 0 43.043l19.5-2.852a72.372 72.372 0 0 0 7.451 17.947l-15.821 11.784a92.966 92.966 0 0 0 30.435 30.438l11.784-15.821a72.437 72.437 0 0 0 17.947 7.448l-2.85 19.5a92.265 92.265 0 0 0 43.041 0l-2.852-19.5a72.368 72.368 0 0 0 17.947-7.448l11.784 15.821a92.973 92.973 0 0 0 30.438-30.438l-15.821-11.784a72.456 72.456 0 0 0 7.451-17.947zm-89.964 23.054a44.576 44.576 0 1 1 44.576-44.576 44.576 44.576 0 0 1 -44.576 44.577z" fill="#5193f4" transform="translate(-108.582 -56.768)"/><path d="m275.347 197.2a51.365 51.365 0 0 0 -6.986-22.913l-9.915 4.684a40.356 40.356 0 0 0 -6.881-8.346l6.51-8.84a51.755 51.755 0 0 0 -21.142-11.264l-3.705 10.337a40.333 40.333 0 0 0 -10.763-1.055l-1.647-10.842a51.367 51.367 0 0 0 -22.911 6.986l4.681 9.917a40.332 40.332 0 0 0 -8.344 6.878l-8.844-6.512a51.73 51.73 0 0 0 -11.261 21.14l10.334 3.707a40.224 40.224 0 0 0 -1.053 10.761l-10.842 1.647a51.365 51.365 0 0 0 6.986 22.913l9.915-4.684a40.284 40.284 0 0 0 6.881 8.344l-6.51 8.842a51.729 51.729 0 0 0 21.15 11.265l3.705-10.337a40.333 40.333 0 0 0 10.763 1.055l1.647 10.842a51.367 51.367 0 0 0 22.911-6.986l-4.681-9.917a40.332 40.332 0 0 0 8.344-6.878l8.842 6.51a51.747 51.747 0 0 0 11.261-21.145l-10.339-3.709a40.212 40.212 0 0 0 1.053-10.761zm-44.147 26.869a24.807 24.807 0 1 1 16.495-30.963 24.808 24.808 0 0 1 -16.495 30.963z" fill="#0056ec" transform="translate(-83.327 -144.957)"/><path d="m652.824 224.318a51.427 51.427 0 0 0 -4.053-23.606l-10.426 3.4a40.378 40.378 0 0 0 -5.777-9.143l7.567-7.953a51.739 51.739 0 0 0 -19.56-13.829l-4.973 9.789a40.3 40.3 0 0 0 -10.545-2.4l-.274-10.963a51.347 51.347 0 0 0 -23.606 4.053l3.4 10.426a40.226 40.226 0 0 0 -9.143 5.777l-7.953-7.57a51.74 51.74 0 0 0 -13.829 19.562l9.789 4.973a40.3 40.3 0 0 0 -2.4 10.545l-10.963.272a51.347 51.347 0 0 0 4.053 23.609l10.426-3.4a40.224 40.224 0 0 0 5.776 9.143l-7.567 7.953a51.739 51.739 0 0 0 19.56 13.829l4.974-9.785a40.3 40.3 0 0 0 10.545 2.4l.272 10.963a51.427 51.427 0 0 0 23.609-4.053l-3.4-10.426a40.3 40.3 0 0 0 9.143-5.777l7.953 7.567a51.741 51.741 0 0 0 13.828-19.56l-9.789-4.973a40.3 40.3 0 0 0 2.4-10.545zm-47.172 21.12a24.808 24.808 0 1 1 20.248-28.65 24.808 24.808 0 0 1 -20.248 28.649z" fill="#5193f4" transform="translate(391.213 -123.388)"/><path d="m211.707 107.907-4.326-10.563 41.727-15.844z" fill="#4075d1" transform="translate(193.668 -130.872)"/><path d="m210.867 101.4 35.3-19.9-24.572 24.956z" fill="#8ebcff" transform="translate(196.609 -130.872)"/><path d="m202.2 93.042 51.278-11.542-41.726 15.844z" fill="#8ebcff" transform="translate(189.297 -130.872)"/><path d="m211.828 92.292-2.1 6.51 6.369-4.5z" fill="#4075d1" transform="translate(195.648 -121.767)"/></g><g filter="url(#a)" transform="translate(.004 -.003)"><path d="m9.545 0h729.817a9.545 9.545 0 0 1 9.545 9.545v473.336a0 0 0 0 1 0 0h-748.907a0 0 0 0 1 0 0v-473.336a9.545 9.545 0 0 1 9.545-9.545z" fill="#fff" transform="translate(200 132.5)"/></g><path d="m8 0h732a8 8 0 0 1 8 8v56a0 0 0 0 1 0 0h-748a0 0 0 0 1 0 0v-56a8 8 0 0 1 8-8z" fill="#cad3ff" transform="translate(200.5 132.414)"/><path d="m239.133 204.18a7.7 7.7 0 1 1 -7.7-7.7 7.7 7.7 0 0 1 7.7 7.7z" fill="#fff" transform="translate(11.248 -40.461)"/><path d="m255.152 204.18a7.7 7.7 0 1 1 -7.7-7.7 7.7 7.7 0 0 1 7.7 7.7z" fill="#fff" transform="translate(25.178 -40.461)"/><path d="m271.171 204.18a7.7 7.7 0 1 1 -7.7-7.7 7.7 7.7 0 0 1 7.7 7.7z" fill="#fff" transform="translate(39.109 -40.461)"/><path d="m587.567 222.036h-100a14.44 14.44 0 0 1 -14.435-14.436 14.44 14.44 0 0 1 14.439-14.439h100a14.439 14.439 0 0 1 14.435 14.439 14.439 14.439 0 0 1 -14.439 14.436z" fill="none" stroke="#fff" stroke-miterlimit="10" stroke-width="2" transform="translate(321.55 -44.592)"/><g fill="none" stroke="#fff" stroke-linecap="round" stroke-linejoin="round" stroke-width="2" transform="translate(890.016 151.005)"><path d="m17.753 11.126a6.626 6.626 0 1 1 -6.627-6.626 6.626 6.626 0 0 1 6.627 6.626z"/><path d="m28.578 28.578-3.6-3.6" transform="translate(-9.169 -9.169)"/></g><text fill="#fff" font-family="SegoeUI, Segoe UI" font-size="16" transform="translate(805.5 168.414)"><tspan x="0" y="0">www.</tspan></text><path d="m827.234 247.439a33.532 33.532 0 0 0 -4.515-4.515 33.162 33.162 0 0 0 -21.183-7.605h-525.055a33.3 33.3 0 1 0 0 66.607h525.055a33.3 33.3 0 0 0 25.7-54.486zm-579.568 21.183a28.848 28.848 0 0 1 28.815-28.815h466.112v57.63h-466.112a28.848 28.848 0 0 1 -28.815-28.815z" fill="#3b79e4" transform="translate(35.448 7.862)"/><path d="m492.39 275.677a18.1 18.1 0 1 1 18.1-18.1 18.121 18.121 0 0 1 -18.1 18.1zm0-32.832a14.733 14.733 0 1 0 14.731 14.733 14.749 14.749 0 0 0 -14.731-14.733z" fill="#fff" transform="translate(322.992 13.039)"/><path d="m502.384 271.753a3.218 3.218 0 0 1 -2.285-.947l-14.172-14.174 4.569-4.569 14.172 14.176a3.23 3.23 0 0 1 -2.284 5.514z" fill="#fff" transform="translate(337.47 28.696)"/><path d="m306.067 256.404h3.366v40.159h-3.366z" fill="#3977e4" opacity=".55"/><path d="m2.03 0h177.444a2.031 2.031 0 0 1 2.026 2.031v69.679a2.031 2.031 0 0 1 -2.031 2.031h-177.438a2.031 2.031 0 0 1 -2.031-2.031v-69.68a2.03 2.03 0 0 1 2.03-2.03z" fill="#e6e8ff" opacity=".25" transform="translate(727.145 343.157)"/><rect fill="#e6e8ff" height="234.964" opacity=".45" rx="5.536" width="423.42" x="267.363" y="343.157"/><g fill="#e6e8ff" transform="translate(291.401 354.643)"><rect height="13.784" opacity=".75" rx="3.071" width="375.343"/><rect height="13.783" opacity=".75" rx="3.071" width="375.343" y="24.236"/><path d="m617.321 320.369h-361.558a6.892 6.892 0 0 1 -6.892-6.892 6.892 6.892 0 0 1 6.892-6.892h361.558a6.892 6.892 0 0 1 6.892 6.892 6.892 6.892 0 0 1 -6.892 6.892z" opacity=".75" transform="translate(-248.87 -258.113)"/><path d="m617.321 331.168h-361.558a6.892 6.892 0 0 1 -6.892-6.892 6.892 6.892 0 0 1 6.892-6.892h361.558a6.892 6.892 0 0 1 6.892 6.892 6.892 6.892 0 0 1 -6.892 6.892z" opacity=".75" transform="translate(-248.87 -244.677)"/><path d="m617.321 341.967h-361.558a6.892 6.892 0 0 1 -6.892-6.892 6.892 6.892 0 0 1 6.892-6.892h361.558a6.892 6.892 0 0 1 6.892 6.892 6.892 6.892 0 0 1 -6.892 6.892z" opacity=".75" transform="translate(-248.87 -231.242)"/><path d="m617.321 352.767h-361.558a6.892 6.892 0 0 1 -6.892-6.892 6.892 6.892 0 0 1 6.892-6.892h361.558a6.892 6.892 0 0 1 6.892 6.892 6.892 6.892 0 0 1 -6.892 6.892z" opacity=".75" transform="translate(-248.87 -217.805)"/><path d="m617.321 363.566h-361.558a6.892 6.892 0 0 1 -6.892-6.892 6.892 6.892 0 0 1 6.892-6.892h361.558a6.892 6.892 0 0 1 6.892 6.892 6.892 6.892 0 0 1 -6.892 6.892z" opacity=".75" transform="translate(-248.87 -204.369)"/><path d="m617.321 374.365h-361.558a6.892 6.892 0 0 1 -6.892-6.892 6.892 6.892 0 0 1 6.892-6.892h361.558a6.892 6.892 0 0 1 6.892 6.892 6.892 6.892 0 0 1 -6.892 6.892z" opacity=".75" transform="translate(-248.87 -190.933)"/><path d="m617.321 385.162h-361.558a6.89 6.89 0 0 1 -6.892-6.89 6.892 6.892 0 0 1 6.892-6.892h361.558a6.892 6.892 0 0 1 6.892 6.892 6.89 6.89 0 0 1 -6.892 6.89z" opacity=".75" transform="translate(-248.87 -177.496)"/></g><rect fill="#e6e8ff" height="138.48" opacity=".25" rx="2.783" width="181.504" x="727.145" y="439.641"/><path d="m618.356 322.069h-169.132a6.189 6.189 0 0 0 -6.187 6.187v16.29h181.506v-16.29a6.189 6.189 0 0 0 -6.187-6.187z" fill="#e6e8ff" transform="translate(284.107 115.795)"/><path d="m590.2 352.767h-132.4a6.89 6.89 0 0 1 -6.89-6.892 6.89 6.89 0 0 1 6.89-6.892h132.4a6.892 6.892 0 0 1 6.892 6.892 6.892 6.892 0 0 1 -6.892 6.892z" fill="#e6e8ff" opacity=".75" transform="translate(293.899 136.839)"/><path d="m590.2 363.566h-132.4a6.89 6.89 0 0 1 -6.89-6.892 6.89 6.89 0 0 1 6.89-6.892h132.4a6.892 6.892 0 0 1 6.892 6.892 6.892 6.892 0 0 1 -6.892 6.892z" fill="#e6e8ff" opacity=".75" transform="translate(293.899 150.275)"/><path d="m590.2 374.365h-132.4a6.89 6.89 0 0 1 -6.89-6.892 6.89 6.89 0 0 1 6.89-6.892h132.4a6.892 6.892 0 0 1 6.892 6.892 6.892 6.892 0 0 1 -6.892 6.892z" fill="#e6e8ff" opacity=".75" transform="translate(293.899 163.71)"/><path d="m590.2 385.162h-132.4a6.888 6.888 0 0 1 -6.89-6.89 6.89 6.89 0 0 1 6.89-6.892h132.4a6.892 6.892 0 0 1 6.892 6.892 6.89 6.89 0 0 1 -6.892 6.89z" fill="#e6e8ff" opacity=".75" transform="translate(293.899 177.148)"/><g transform="translate(739.965 191.158)"><path d="m518.16 311.981-4.327-2.63a20.875 20.875 0 0 0 -.951-3.333c-.4-.745-2.442-3.279-2.922-2.942s.646 1.986.366 2.381c-.485.682-1.683.592-2.884.054-.534-.24-3.375-2.1-3.788-1.784s-.114 2.578 1.01 3.916a9.318 9.318 0 0 0 3.907 3.068 22.782 22.782 0 0 0 3.254.536l4.2 4.491" fill="#ff6d6d" transform="translate(-380.66 -99.032)"/><path d="m590.008 295.654c-8.016-5.166-15.749-3.353-24.23 7.59-5.716 7.374-15.869 31.239-22.469 31.849s-33.88-12.776-33.88-12.776l-1.9 2.525s21.818 30.37 44.684 30.408c11.059.018 35.047-23.167 40.44-31.589 6.789-10.608 4.359-23.496-2.645-28.007z" fill="#324ed8" transform="translate(-375.62 -111.671)"/><path d="m557.088 408.286s-14.686 4.448-14.672 7.8c.009 1.921 21.573 1.416 22.873.117 2.08-2.08-1.616-8.375-1.616-8.375z" fill="#352e73" transform="translate(-332.213 31.331)"/><path d="m548.954 405.2v9.645a2.942 2.942 0 0 0 2.713 1.735 4.569 4.569 0 0 0 3.64-1.735l.231-12.071" fill="#ff6d6d" transform="translate(-324.079 25.054)"/><path d="m536.738 343.4c-1.932-2.469-3.979 43.039 5.5 84.984 8.425 37.267 23.245 77.011 23.245 77.011h7.451s4.672-41.1 2.769-60.384c-.909-9.215-2.233-44.168 1.889-54.807 5.061-6.6 8.256-20.9 5.061-34.758a297.79 297.79 0 0 0 -9.423-30.617" fill="#fe881c" transform="translate(-341.308 -71.934)"/><path d="m224.177 433.456h7.451" fill="none" stroke="#d66121" stroke-miterlimit="10" stroke-width=".5"/><path d="m222.804 429.307 9.121.12" fill="none" stroke="#d66121" stroke-miterlimit="10" stroke-width=".5"/><path d="m531.378 408.286s-14.684 4.448-14.672 7.8c.009 1.921 21.573 1.416 22.873.117 2.08-2.08-1.616-8.375-1.616-8.375z" fill="#352e73" transform="translate(-364.201 31.33)"/><path d="m523.244 405.2v9.645a2.942 2.942 0 0 0 2.713 1.735 4.569 4.569 0 0 0 3.64-1.735l.231-12.071" fill="#ff6d6d" transform="translate(-356.066 25.053)"/><path d="m526.629 335.482c-4.957 14.461-6.517 39.58-6.517 84.107 0 38.207 6.681 81.064 6.681 81.064h7.451s15.606-48.335 17.128-57.469 8.2-49.52 14.567-58.988c2.558-.763 12.839-11.281 12.778-25.5s-15.017-30.063-15.017-30.063" fill="#fe881c" transform="translate(-359.963 -67.197)"/><path d="m166.83 433.456h7.451" fill="none" stroke="#d66121" stroke-miterlimit="10" stroke-width=".5"/><path d="m166.222 429.307h9.197" fill="none" stroke="#d66121" stroke-miterlimit="10" stroke-width=".5"/><path d="m537.141 389.108c.579-1.219 2.691-12.161 5.839-17.244 1.8-2.915 15.393-10.961 15.393-28.732" fill="none" stroke="#d66121" stroke-miterlimit="10" stroke-width=".5" transform="translate(-338.776 -49.158)"/><path d="m525.381 335.459c-1.728 12.237-6.088 46.914-3.425 49.672s14.293 3.943 35.88 4.338 38.712-1.183 41-8.279 4.946-72.215-27.688-87.5l-16.45-.8c-22.468 4.862-27.589 30.331-29.317 42.569z" fill="#4a63fe" transform="translate(-358.715 -111.671)"/><path d="m541.8 277.35c-2.4.478-5.487 5.251-6.813 8.176-1.952 4.3-2.639 12.28-.381 14.966 1.652 1.968 5.424 2.671 10.375 2.751 4.188.067 10.886-1.29 10.886-7.65s-2.713-20.517-14.067-18.243z" fill="#ff6d6d" transform="translate(-343.694 -131.306)"/><path d="m538.434 290.717-2.356 11.046s6.6 6.185 16.45.8l-2.928-16.81" fill="#ff6d6d" transform="translate(-340.098 -120.547)"/><path d="m536.207 281.2s-3.761 3.748-3.763 4.865c0 2.112 3.03 1.652 3.03 1.652" fill="#ff6d6d" transform="translate(-344.62 -126.206)"/><path d="m560.864 294.528a14.165 14.165 0 0 1 -2.78 6.039 8.82 8.82 0 0 1 -4.7 2.915c-2.085.15-3.53-1.214-4.423-2.951-.48-.934-.819-1.93-1.205-2.906-.227-.575-.314-1.69-.911-1.851-.415-.115-.768.758-1.192.839a1.362 1.362 0 0 1 -1.653-1.145 7.536 7.536 0 0 1 .687-2.729 4.2 4.2 0 0 0 .263-2.765 3.145 3.145 0 0 0 -1.737-1.73 7.577 7.577 0 0 0 -2.623-.532 9.8 9.8 0 0 1 -2.509-.675 9.025 9.025 0 0 1 -4.131-2.846 6.974 6.974 0 0 1 8.294-10.649 8.885 8.885 0 0 1 2.554 1.741.921.921 0 0 0 .545.321c.278.013.494-.227.687-.426a4.36 4.36 0 0 1 5.974-.087c1.156 1.14 1.56 2.841 2.552 4.127a26.9 26.9 0 0 0 3.739 3.467 9.051 9.051 0 0 1 3.036 5.31 13.244 13.244 0 0 1 -.467 6.533z" fill="#352e73" transform="translate(-344.479 -136.402)"/><path d="m539.395 283.745c.3-.848 1.115-1.573 2.576-.8.949.5.689 1.892.417 2.722a3.422 3.422 0 0 1 -1.807 2.157 1.672 1.672 0 0 1 -2.195-1.075" fill="#ff6d6d" transform="translate(-337.226 -124.45)"/><g clip-path="url(#b)" fill="url(#c)"><path d="m544.649 210.907s-90.485 158.616-90.992 159.729h39.984l90.992-159.729z" transform="translate(-442.644 -213.668)"/><path d="m571.832 210.907s-90.487 158.616-90.994 159.729h12.65l90.994-159.729z" transform="translate(-408.826 -213.668)"/></g><path d="m0 0h17.01v90.707h-17.01z" fill="#4348a3" transform="matrix(.95025513 -.31147262 .31147262 .95025513 96.493 148.115)"/><path d="m503.792 221.645a71.28 71.28 0 1 0 89.935 45.534 71.284 71.284 0 0 0 -89.935-45.534zm41.241 125.828a61.133 61.133 0 1 1 39.053-77.134 61.134 61.134 0 0 1 -39.053 77.134z" fill="#352e73" transform="translate(-441.354 -204.742)"/><path d="m545.9 413.064a12.63 12.63 0 0 1 -15.936-8.064l-35.764-109.108 24-7.866 35.759 109.1a12.628 12.628 0 0 1 -8.059 15.938z" fill="#352e73" transform="translate(-392.198 -117.719)"/><path d="m514.128 315.455-4.661-2.834a22.587 22.587 0 0 0 -1.028-3.593c-.435-.8-2.63-3.532-3.149-3.171s.7 2.141.395 2.567c-.523.734-1.815.64-3.108.056-.577-.258-3.638-2.264-4.082-1.921s-.123 2.778 1.088 4.221a10.049 10.049 0 0 0 4.21 3.3 24.364 24.364 0 0 0 3.505.579l4.533 4.838" fill="#ff6d6d" transform="translate(-387.097 -95.575)"/><path d="m591.558 297.859c-8.64-5.568-16.973-3.613-26.113 8.178-6.16 7.947-17.1 33.667-24.215 34.324s-36.513-13.768-36.513-13.768l-2.049 2.72s23.514 32.731 48.155 32.772c11.919.02 37.772-24.966 43.582-34.044 7.322-11.431 4.7-25.321-2.847-30.182z" fill="#4a63fe" transform="translate(-381.665 -109.195)"/><path d="m570.958 309.655c-4.72 7.372-23.043 28.216-36.836 32.4a28.692 28.692 0 0 1 -12.608 1.026" fill="none" stroke="#31319b" stroke-miterlimit="10" stroke-width=".5" transform="translate(-358.218 -90.809)"/><path d="m546.57 296.652c-11.591 7.453-17.527 28.6-23.18 34.262" fill="none" stroke="#31319b" stroke-miterlimit="10" stroke-width=".5" transform="translate(-355.885 -106.987)"/><path d="m548.549 275.519a17.835 17.835 0 0 1 17.834-17.837h30.875a17.836 17.836 0 1 1 0 35.671h-30.875a17.765 17.765 0 0 1 -4.987-.72l-6.714 4.616 1.946-6.809a17.814 17.814 0 0 1 -8.079-14.921z" fill="#9dadea" opacity=".75" transform="translate(-324.583 -155.472)"/><g fill="#fff"><path d="m570.387 268.523a2.894 2.894 0 1 0 2.895-2.9 2.893 2.893 0 0 0 -2.895 2.9z" transform="translate(-297.413 -145.586)"/><circle cx="263.448" cy="122.936" r="2.893"/><circle cx="251.029" cy="122.936" r="2.893"/><circle cx="238.609" cy="122.936" r="2.893"/></g></g><path d="m448.744 324.389s16.555 18.826 25.595 22.033c13.413 4.76 34.468 7.958 34.468 7.958l.747-3.2s-25.824-16.344-33.212-21.416c-2.81-1.928-13.193-22.437-13.193-22.437" fill="#ef5e5e" transform="translate(291.208 97.455)"/><path d="m444.695 298.367s7.35.411 13.054 3.88c8.719 5.3 12.953 17.886 17 27.6-2.1 2.035-6.192 5.339-12.015 15.2-6.8-5.431-14.692-15.691-14.692-15.691" fill="#cad3ff" transform="translate(286.17 86.305)"/><path d="m474.738 328.4a4.746 4.746 0 0 0 3.487 3.692 5.146 5.146 0 0 1 1.917.581c.7.514 1.068 1.6 1.934 1.623a1.25 1.25 0 0 0 1.068-.725 3.416 3.416 0 0 0 .287-1.32c.041-.572.061-1.142.065-1.717a2.881 2.881 0 0 0 -.242-1.407 2.837 2.837 0 0 0 -1.479-1.109 17.85 17.85 0 0 0 -7.009-1.414" fill="#ef5e5e" transform="translate(323.549 121.435)"/><path d="m447.2 369.69c.123 1.194 7.058 26.551 7.626 29.284 1.654 7.958-2.056 16.3-.817 28.723 1.508 15.106 10.649 55.373 11.587 57.121s4.753-.164 4.753-.164 7.7-55.339 6.849-77.72c-.694-18.434-6.012-58.075-6.012-58.075" fill="#ef5e5e" transform="translate(289.285 149.127)"/><path d="m455.515 409.766a6.6 6.6 0 0 0 -.494 2.049c.2 1.69.328 2.843.328 2.843h.741l.162-1.4a11.717 11.717 0 0 1 4.062 1.391c1.008.57 5.855.191 6.575-.254a.982.982 0 0 0 .213-1.584c-.3-.307-5.7-2.251-5.7-2.251" fill="#352e73" transform="translate(299.01 224.904)"/><path d="m460.357 409.783c.494 1 4.791 2.98 4.428 3.31s-2.772.5-5.5-.209c-2.491-.651-3.93-1.465-4.051-2.1l.352-1.746" fill="#ef5e5e" transform="translate(299.276 223.999)"/><path d="m434.856 409.766a6.6 6.6 0 0 0 -.494 2.049c.2 1.69.328 2.843.328 2.843h.741l.162-1.4a11.716 11.716 0 0 1 4.062 1.391c1.008.57 5.42.191 6.14-.254a.982.982 0 0 0 .213-1.584c-.3-.307-5.265-2.251-5.265-2.251" fill="#352e73" transform="translate(273.306 224.904)"/><path d="m428.806 367.3c0 1.2 4.951 35.86 4.951 38.658s-3.048 14.628-1.524 27.018 8.968 49.226 9.722 51.073 3.995.117 3.995.117 6.519-54.069 8.846-76.434c1.905-18.339 0-58.418 0-58.418" fill="#ef5e5e" transform="translate(266.401 149.688)"/><path d="m438.778 409.853c.494 1 5.276 2.911 4.913 3.241s-2.336.5-5.07-.209c-2.489-.651-3.93-1.465-4.051-2.1l.352-1.746" fill="#ef5e5e" transform="translate(273.572 223.999)"/><path d="m443.315 330.068s-11.378 7.98-15.224 26.38c-5.184 24.812 5.058 72.745 5.058 72.745s18.539 7.195 38.328 6.4 33.49-10.393 33.49-11.593-.514-37.718-5.328-62.354c-5.401-27.646-17.139-34.776-17.139-34.776" fill="#4348a3" transform="translate(263.689 121.768)"/><path d="m446.586 328.295s-11.378 7.98-15.222 26.38c-5.186 24.812 2.13 74.087 2.13 74.087" fill="none" stroke="#646dbc" stroke-miterlimit="10" stroke-width=".5" transform="translate(267.272 123.541)"/><path d="m429.2 372.221s23.2 9.208 46.019 6.064a59.947 59.947 0 0 0 26.194-10.512" fill="none" stroke="#646dbc" stroke-miterlimit="10" stroke-width=".5" transform="translate(266.896 172.658)"/><path d="m452.14 297.556c-1.8-.671-6.21 2.426-14.964 5.781-3.846 4.161-3.927 13.277-4.758 21.349-1.811 17.646 3.2 30.368 1.982 37-.29 1.569-1.73 2.758-1.5 4.948.476 4.531 7.893 5.218 21.975 6.818s26.757-4.8 26-6.8-3.162-3.748-3.544-5.072-1.142-16.513.381-18.51 6.239-6.452 6.25-12.047c.036-16.308-13.941-29.733-21.268-31.544a59.623 59.623 0 0 0 -10.554-1.923z" fill="#cad3ff" transform="translate(270.399 85.181)"/><path d="m452.947 337.4c1.521-2 6.988-7.563 7-13.158a29.383 29.383 0 0 0 -8.629-21.331" fill="none" stroke="#9dadea" stroke-miterlimit="10" stroke-width=".5" transform="translate(294.41 91.962)"/><path d="m463.89 318.822-3.135 26.91h38.335l3.187-27.28a.883.883 0 0 0 -.781-1.059h-36.158a1.549 1.549 0 0 0 -1.448 1.429z" fill="#cad3ff" transform="translate(306.151 109.976)"/><path d="m.771 0h28.979a0 0 0 0 1 0 0v3.222a0 0 0 0 1 0 0h-29.75a0 0 0 0 1 0 0v-2.451a.771.771 0 0 1 .771-.771z" fill="#cad3ff" transform="translate(747.723 452.484)"/><path d="m474.479 325.474a3.479 3.479 0 0 1 -3.14 3.187c-1.521 0-2.581-1.427-2.367-3.187a3.481 3.481 0 0 1 3.14-3.189c1.521 0 2.58 1.427 2.367 3.189z" fill="#fff" transform="translate(316.341 116.064)"/><path d="m437.052 301.7c-5.842 3.873-8.263 18.211-5.474 27s6.21 30.821 18.757 38.142 44.147 3.5 44.147 3.5v-3.348s-34.39-10.4-34.854-16.744-2.563-31.34-6.416-38.69c-2.863-5.46-7.354-15.693-16.16-9.86z" fill="#ef5e5e" transform="translate(268.411 88.287)"/><path d="m459.421 343.439c-1.221-11.425-2.451-25.541-4.735-31.414-3.979-10.231-9.062-16.425-17.814-11.127-6 3.629-8.559 20.568-5.772 29.354 1.522 4.8 3.555 13.447 7.116 21.508.036-.043 2.843-3.344 10.049-6.279 4.383-1.781 11.153-2.042 11.156-2.042z" fill="#cad3ff" transform="translate(267.854 87.047)"/><path d="m459.607 331.135a19.048 19.048 0 0 1 5.285-2.135c1.515-.236 5.2-1.086 5.054 0s-3.088.833-3 1.578c.123 1.019 3.16 1.38 3.9 1.38s4.129-1.248 4.722-.471-5.343 4.078-7.781 4.08a64.623 64.623 0 0 1 -10.047-.815" fill="#ef5e5e" transform="translate(302.403 123.748)"/><path d="m441.429 306.844a190.381 190.381 0 0 1 3.739 26.789" fill="none" stroke="#9dadea" stroke-miterlimit="10" stroke-width=".5" transform="translate(282.107 96.852)"/><path d="m706.07 438.806-2.549-6.511" fill="none" stroke="#9dadea" stroke-miterlimit="10" stroke-width=".5"/><path d="m455.04 295.275-2.727 12.107a4.83 4.83 0 0 1 -5.545 2.457c-3.788-1.048-5.783-4.975-5.783-4.975l6.3-13.274" fill="#ef5e5e" transform="translate(281.554 77.873)"/><path d="m447.319 307.214s12.2 5.525 18.149-.779c3.407-3.609-5.269-21.6-9.044-24.138s-11.174.184-12.738 4.437-5.711 15.44 3.633 20.48" fill="#ef5e5e" transform="translate(282.081 65.093)"/><path d="m467.374 285.681c-3.335 3.328-5.406 8.4-9.74 10.018-3.882 1.452-8.077-.442-11.991-1.8-7.742-2.68-16.793-3.09-23.544 1.708s-9.47 15.99-3.867 22.2c1.463 1.623 3.407 2.886 4.248 4.939s.379 4.428.586 6.663c.431 4.609 3.824 8.465 7.807 10.456s8.5 2.415 12.9 2.588c5.725.222 11.632.036 16.9-2.329 6.939-3.115 10.658-10.231 12.368-17.451 1.692-7.148 7.567-7.648 9.677-14.455 1.571-5.074-1.522-9.735-.191-14.8.649-2.464 2.08-4.843 4.3-5.889.689-.323 1.434-.512 2.092-.9s3.393.184 3.393-2.222a2.938 2.938 0 0 0 -.66-1.688c-1.275-1.741-5.332-2.556-7.4-2.879a7.917 7.917 0 0 0 -4.43.606 9.159 9.159 0 0 1 -1.858.907c-.736.137-1.546.04-2.3.15a14.913 14.913 0 0 0 -8.29 4.178z" fill="#fe881c" transform="translate(249.491 63.157)"/><path d="m364.431 408.286s15.168 4.448 15.155 7.8c-.007 1.921-22.285 1.416-23.627.117-2.15-2.08 1.67-8.375 1.67-8.375z" fill="#352e73" transform="translate(174.951 222.489)"/><path d="m363.141 405.2v9.645a3.03 3.03 0 0 1 -2.805 1.735 4.76 4.76 0 0 1 -3.759-1.735l-.238-12.071" fill="#ff6d6d" transform="translate(176.24 216.212)"/><path d="m390.775 408.286s15.171 4.448 15.157 7.8c-.009 1.921-22.287 1.416-23.629.117-2.148-2.08 1.67-8.375 1.67-8.375z" fill="#352e73" transform="translate(207.729 222.488)"/><path d="m389.486 405.2v9.645a3.029 3.029 0 0 1 -2.8 1.735 4.756 4.756 0 0 1 -3.759-1.735l-.24-12.071" fill="#ff6d6d" transform="translate(209.018 216.212)"/><path d="m372.456 334.45c-.619 1.061-7.462 15.388-3.337 39.008 2.311 13.234 16.741 46.158 16.921 50.947.75 20.04 13.649 77.092 13.649 77.092s10.729.341 10.709 0 1.842-68.22 1.136-93.144c-1.131-39.949-6.279-81.724-6.279-81.724" fill="#4a63fe" transform="translate(190.505 121.468)"/><path d="m369.147 344.2s16.968 53.47 17.653 56.9-.263 5.132 1.279 12.556c1.29 6.219 11.741 66.028 11.741 66.028" fill="none" stroke="#31319b" stroke-miterlimit="10" stroke-width=".5" transform="translate(192.176 143.333)"/><path d="m589.961 621.484h11.145v3.77h-11.145z" fill="#cad3ff"/><path d="m360.24 332.918c-.682 1.021-12.935 14.637-10.238 38.461 1.51 13.351 8.885 47 8.162 51.737-3.158 20.763 5.105 77.814 5.105 77.814s10.729.341 10.729 0c0-3.247 22.478-107.287 24.65-131.932 2.19-24.838 0-41.912 0-41.912" fill="#4a63fe" transform="translate(167.874 122.036)"/><path d="m357.078 332.475a66.2 66.2 0 0 0 -5.642 23.193c-1.1 17.352 8.681 57.624 8.324 61.394s-1.387 21.982-.9 28.891c1.582 22.462 3.8 48.422 3.8 48.422" fill="none" stroke="#31319b" stroke-miterlimit="10" stroke-width=".5" transform="translate(170.032 128.742)"/><path d="m370.369 366.325 3.43-20.051 2.4-3.6" fill="none" stroke="#31319b" stroke-miterlimit="10" stroke-width=".5" transform="translate(193.696 141.434)"/><path d="m530.838 621.485h11.145v3.77h-11.145z" fill="#cad3ff"/><path d="m396.928 291.161s18.912 11.762 21.347 19.318c0 0 4.888 2.668 5.507 4.565 1.288 8.241.489 13.638.819 21.136 1.986 45.2 9.217 42.482 3.546 49.219-4.421 5.247-18.721 4.2-37.781 4.172-8.175-.009-37.781.341-38.8-5.785s2.722-7.242 2.722-11.279 2.383-62.027 2.383-62.027c1.649-2.781 24.4-19.318 24.4-19.318s10.189-1.312 15.857-.001z" fill="#cad3ff" transform="translate(170.081 76.616)"/><path d="m418.929 285.373c1.829.139 2.2-2.866 2.605-3.844.162.258 1.129 0 1.389-.135a3.205 3.205 0 0 0 1.38-1.335 2.3 2.3 0 0 0 .061-1.65 2.2 2.2 0 0 0 -.853-1.272c-.249-.137.155-.752-.882-.723a5.434 5.434 0 0 1 1.73-1.275c.341-.083 2.345-1.041 2.3-1.681s-1.97.027-3.072.368a8.117 8.117 0 0 0 -3.526 2.361c.022-.671.97-1.515.4-2.363s-2.253 2.017-2.879 3.4a34.9 34.9 0 0 0 -1.667 5.29l-7 6.082s3.586 6.479 3.831 6.061 6.183-9.284 6.183-9.284z" fill="#ff6d6d" transform="translate(241.649 54.984)"/><path d="m371.681 307.04s12.327-.671 19.7-.521c16.2.334 26.3-.435 31.407-2.435 8.326-3.254 38.093-26.268 38.093-26.268l3.3 3.667s-13.829 37.074-35.229 47.935c-19.073 9.679-40.146 8.095-40.146 8.095" fill="#cad3ff" transform="translate(195.328 60.737)"/><path d="m354.018 344.163s-1.263 5.781-.658 8.492a14.85 14.85 0 0 0 2.81 5.359c.981.848 1.829 1.306 2.417.783s.117-3.636.2-4.311c.229-1.919.916-3.335 1.418-3.4s-.047 2.352 1.064 2.417.837-1.454.978-2.417a10.147 10.147 0 0 0 -.39-4.9c-.391-1.439-4.152-4.672-4.152-4.672l-4.455-9.93-7.6 3.324z" fill="#ff6d6d" transform="translate(162.944 127.63)"/><path d="m396.947 290.838s-18.452.664-29.679 9.975c-8.146 6.755-28.2 19.527-28.638 45.667-.388 23.1 19.179 44.881 23.333 47.491 0 0 4.428-2.161 3.535-3.88s-6.228-39.482-4.473-43.611 24.665-24.15 24.665-24.15" fill="#cad3ff" transform="translate(154.201 76.938)"/><path d="m526.449 414.07 11.474-12.676" fill="none" stroke="#9dadea" stroke-miterlimit="10" stroke-width=".5"/><path d="m368.884 276.737a5.563 5.563 0 0 1 3.582 1.142 9.185 9.185 0 0 1 2.462 2.906 13.7 13.7 0 0 1 1.737 5.678 5.1 5.1 0 0 1 -.245 2.32 3.99 3.99 0 0 1 -2.359 2.134 8.189 8.189 0 0 1 -3.232.388" fill="#352e73" transform="translate(191.848 59.383)"/><path d="m384.085 290.466a14.775 14.775 0 0 1 .754 5.682 7.048 7.048 0 0 1 -2.581 4.975c-5.132 3.829-14.369 1.391-17.426-4.084-2.253-4.037-4.28-9.181-2.929-13.847 1.353-4.681 6.641-8.645 11.573-8.066 7.582.89 8.824 9.404 10.609 15.34z" fill="#ff6d6d" transform="translate(182.623 57.322)"/><path d="m374.593 287.447 1.7 9.551 4.181 1.171s-1.638 3.721-7.092 3.721a13.348 13.348 0 0 1 -8.77-3.721l4.772-1.169v-12.055" fill="#ff6d6d" transform="translate(186.534 69.607)"/><path d="m385.523 274.995a9.192 9.192 0 0 0 -11.827-.9 2.89 2.89 0 0 1 -1.7.857 3.782 3.782 0 0 1 -1.223-.4 4.775 4.775 0 0 0 -5.222 1.748 10.181 10.181 0 0 0 -1.831 5.521 1.349 1.349 0 0 1 -.141.595 1.448 1.448 0 0 1 -.635.471 7.55 7.55 0 0 0 -3.658 4.342c-1.777 5.4 2.419 10.411 5.361 14.464a5.133 5.133 0 0 0 3.216 2.19c.572.159 1.7.341 2.152-.038a3.025 3.025 0 0 0 .765-.875c.3-.7-.166-.987-.278-1.741a5.113 5.113 0 0 0 -.53-1.452q-.916-1.9-1.833-3.79a3.13 3.13 0 0 0 .238-.276c.97-1.369.687-3.27.016-4.8-.491-1.124-1.1-2.612-.166-3.407 1.046-.891 2.783-.788 3.647-2 .352-.5.521-1.147 1.01-1.513.734-.548 1.759-.188 2.648.034 2.157.536 3.932-.435 6.035-.391a6.847 6.847 0 0 0 4.266-.925c2.338-1.74 1.703-5.609-.31-7.714z" fill="#352e73" transform="translate(179.379 53.942)"/><path d="m365.152 283.2a1 1 0 0 0 -.844-.7 1.938 1.938 0 0 0 -2.044 1.544 3.451 3.451 0 0 0 .655 2.662 3.8 3.8 0 0 0 3.653 1.809c.649-.126.871-.675 1.046-1.313" fill="#ff6d6d" transform="translate(183.53 66.547)"/><path d="m392.065 278.118a17.834 17.834 0 0 0 -17.834-17.834h-30.875a17.836 17.836 0 1 0 0 35.671h30.875a17.845 17.845 0 0 0 4.986-.72l6.715 4.616-1.946-6.811a17.811 17.811 0 0 0 8.079-14.922z" fill="#9dadea" opacity=".75" transform="translate(137.895 38.924)"/><path d="m336.543 271.123a2.894 2.894 0 1 1 -2.9-2.893 2.893 2.893 0 0 1 2.9 2.893z" fill="#fff" transform="translate(144.409 48.81)"/><circle cx="490.477" cy="319.933" fill="#fff" r="2.893"/><circle cx="502.897" cy="319.933" fill="#fff" r="2.893"/><circle cx="515.316" cy="319.933" fill="#fff" r="2.893"/><path d="m0 0h1.885v10.052h-1.885z" fill="#4348a3" transform="matrix(.99356988 .11322055 -.11322055 .99356988 255.484 355.979)"/><path d="m238.005 279.027c-3.474-.395-6.69 2.8-7.184 7.132s1.921 8.169 5.4 8.564 6.69-2.8 7.184-7.13-1.926-8.171-5.4-8.566zm-1.661 14.58c-2.98-.341-5.052-3.629-4.627-7.347s3.182-6.456 6.16-6.115 5.052 3.629 4.628 7.345-3.183 6.457-6.161 6.118z" fill="#352e73" transform="translate(19.996 62.203)"/><path d="m233.089 301.234a1.4 1.4 0 0 1 -1.232-1.549l1.441-12.641 2.781.316-1.441 12.64a1.4 1.4 0 0 1 -1.549 1.234z" fill="#352e73" transform="translate(21.352 72.218)"/><path d="m234.7 306.225-.536-5.891a39.981 39.981 0 0 1 -2.114-3.743c-1.019-2.825.321-6.279.945-6.627.2.664.076 2.089 1.169 1.771s1.845-3.483 1.845-3.483.669-.061 1.241 1.131a6.763 6.763 0 0 1 .478 1.477 6.445 6.445 0 0 1 1.708 1.993 7.481 7.481 0 0 1 .521 4.628c-.191.536-1.272 1.829-1.272 2.262s2.307 9.19 2.307 9.19" fill="#ff6d6d" transform="translate(21.147 73.719)"/><path d="m245.676 288.765c-12.821-2.715-58.6 23.84-61.064 44.275-1.737 14.4 23.025 54.7 23.025 54.7s5.361 2.823 5.361 0-1.741-50.649-1.741-50.649 33.093-5.761 35.391-13.42 22.166-30.003-.972-34.906z" fill="#fe881c" transform="translate(-37.525 74.12)"/><path d="m192.109 308.374s8.842 2.453 10 12" fill="none" stroke="#d66121" stroke-miterlimit="10" stroke-width=".5" transform="translate(-28.089 98.757)"/><path d="m241.1 285s-1.894 16.975-5.682 17.269-12.552-1.607-14.383-5.779a76.485 76.485 0 0 1 -3.294-11.349s8.84-9.726 11.681-11.62 12.623 5.334 11.678 11.479z" fill="#ff6d6d" transform="translate(3.806 55.005)"/><path d="m226.562 280.458-12.211 16.266s9.147 10.494 12.211 13.425 4.6-4.659 4.6-4.659l-1.023-5.2 6.039-14.3" fill="#ff6d6d" transform="translate(-.417 64.024)"/><path d="m248.035 279.01c-.734-2.451-3.324-3.8-5.736-4.65a42.284 42.284 0 0 0 -8.321-2.022 15.184 15.184 0 0 0 -5.886.1 6.712 6.712 0 0 0 -4.518 3.519c-1.194-.568-2.623.123-3.57 1.044a9.8 9.8 0 0 0 -2.727 5.929 20.455 20.455 0 0 0 1.046 9.114c.794 2.255 2.343 6.288 5.2 6.474a1.3 1.3 0 0 0 .907-.233 1.7 1.7 0 0 0 .473-1.017 19.566 19.566 0 0 0 .319-5.292c-.117-1.533-.761-3.27-.46-4.8a2.239 2.239 0 0 1 1.566-1.818 4.929 4.929 0 0 1 1.692.135c1.676.236 3.481-1.373 5.249-1.506 2.924-.218 5.889.985 8.847 1.046 3.284.067 7.084-2.133 5.919-6.023z" fill="#cad3ff" transform="translate(3.06 53.627)"/><path d="m223.117 280.385a1.56 1.56 0 0 0 -1.988-.548 2.683 2.683 0 0 0 -1.335 1.753 4.285 4.285 0 0 0 .5 3.409 2.651 2.651 0 0 0 1.856 1.313 1.542 1.542 0 0 0 1.71-1.239" fill="#ff6d6d" transform="translate(6.163 63.067)"/><path d="m202.124 408.286s15.162 4.448 15.146 7.8c-.007 1.914-22.27 1.414-23.614.114-2.148-2.08 1.67-8.375 1.67-8.375z" fill="#352e73" transform="translate(-26.98 222.489)"/><path d="m200.835 405.2v9.645a3.029 3.029 0 0 1 -2.8 1.735 4.754 4.754 0 0 1 -3.757-1.735l-.238-12.071" fill="#ff6d6d" transform="translate(-25.691 216.212)"/><path d="m195.877 333.32s-5.819 10.734-7.35 22.181.431 25.835.431 25.835 10.433 46.221 10.162 50.337c-1.555 23.53 2.094 66.19 2.094 66.19l7.873.889s21.255-42.624 25.247-81.573c.651-6.353 6.706-78.142 5.94-81.5" fill="#1f1d51" transform="translate(-33.273 129.793)"/><path d="m231.949 408.286s15.162 4.448 15.148 7.8c-.009 1.921-22.273 1.416-23.615.117-2.148-2.08 1.67-8.375 1.67-8.375z" fill="#352e73" transform="translate(10.128 222.489)"/><path d="m230.66 405.2v9.645a3.029 3.029 0 0 1 -2.8 1.735 4.759 4.759 0 0 1 -3.757-1.735l-.238-12.071" fill="#ff6d6d" transform="translate(11.417 216.212)"/><path d="m257.884 325.025s15.536 62.65 15.7 100.321-12.877 82.673-12.877 82.673h-7.525s-11.634-44.053-13.678-74.3c-5.512-11.012-25.281-45.637-25.281-45.637-9.859-6.088-16.338-21.111-13.149-36.849" fill="#1f1d51" transform="translate(-17.953 119.473)"/><path d="m200.607 339.833a29.245 29.245 0 0 0 9.055 26.079c4.322 4.046 6.178 6.526 7.058 8.077s4.1 7.242 4.1 7.242" fill="none" stroke="#454589" stroke-miterlimit="10" stroke-width=".5" transform="translate(-17.981 137.897)"/><path d="m246.765 287.223s-17.888 6.055-32.354 24.675c-16.066 20.68-29.693 85.564-24.354 90.406s16.118 11.111 37.563 11.876 51.219-4.412 54.453-11.394-10.108-74.125-11.423-82.743a141.061 141.061 0 0 0 -8.315-29.381 11.865 11.865 0 0 1 -5.382.66c-4.997-.778-10.188-4.099-10.188-4.099z" fill="#fe881c" transform="translate(-32.108 72.441)"/><path d="m190.493 368.56s5.662-32.585 21.03-55.9c6.468-9.814 13.4-18.256 26.185-23.9" fill="none" stroke="#d66121" stroke-miterlimit="10" stroke-width=".5" transform="translate(-30.1 74.347)"/><path d="m211.261 293.074a31.6 31.6 0 0 1 15.59-2.529c9.19.732 27.071 33.1 31.513 30.745 1.531-.81 1.212-22.583 1.212-22.583l5.236-.3s17.217 43.142-1.773 49.935c-9.423 3.368-44.12-29.45-44.12-29.45" fill="#fe881c" transform="translate(-4.261 76.44)"/><path d="m240.385 416.531-23.037-18.801" fill="none" stroke="#d66121" stroke-miterlimit="10" stroke-width=".5"/><path d="m212.392 292.02s9.441-3.294 15.307-.251a32.3 32.3 0 0 1 9.744 8.185" fill="none" stroke="#d66121" stroke-miterlimit="10" stroke-width=".5" transform="translate(-2.854 76.491)"/><path d="m265.8 298.5 1.578-5.774s-.714-3.11-.85-3.986c-1.106-7.071 4.742-6.178 4.742-6.178s2.195 1.878 2.379 3.122c.617 4.21-2.071 7.924-2.1 8.355s-1.726 7.473-1.726 7.473" fill="#ff6d6d" transform="translate(63.59 66.598)"/><path d="m0 0h1.885v10.052h-1.885z" fill="#4348a3" transform="matrix(.92616047 .37712966 -.37712966 .92616047 337.022 341.824)"/><path d="m278.952 274.789c-2.224-2.619-6.131-2.04-8.728 1.293s-2.9 8.151-.671 10.77 6.133 2.04 8.728-1.293 2.898-8.153.671-10.77zm-8.73 11.2c-1.908-2.244-1.652-6.38.575-9.237s5.579-3.353 7.487-1.109 1.652 6.382-.575 9.239-5.579 3.357-7.486 1.11z" fill="#352e73" transform="translate(66.409 54.93)"/><path d="m267.134 294.191a1.4 1.4 0 0 1 -.768-1.824l4.8-11.784 2.592 1.055-4.8 11.784a1.4 1.4 0 0 1 -1.824.769z" fill="#352e73" transform="translate(64.169 64.178)"/><path d="m268.251 293.194a3.656 3.656 0 0 1 -.33-3.544 15.8 15.8 0 0 1 1.264-1.916 1 1 0 0 0 .193-.456 1.179 1.179 0 0 0 -.233-.671c-.734-1.277-1.75-3.5-1.091-4.226s2.891 2.143 3.337 3.629" fill="#ff6d6d" transform="translate(65.845 66.272)"/><path d="m270.123 285.5a16.2 16.2 0 0 0 -.058-3.07 1.639 1.639 0 0 0 -2.336.752c-1.037.038-1.259.514-1.667 1.29-.395.747.011 1.638.027 2.482a1.979 1.979 0 0 0 1.342 1.934 2.011 2.011 0 0 0 2.051-1.037 5.868 5.868 0 0 0 .641-2.351z" fill="#ff6d6d" transform="translate(63.705 66.196)"/><path d="m302.978 333.377c-12.049 3.972-36.391 8.057-40.911 0-4.827-8.606 3.2-35.866 11.133-46.266l5.088 1.3s-4.419 26.905.8 29c2.065.83 9.735-4.291 21.919-8.425 2.291-.779 10.494-3.131 15.186-3.364" fill="#4a63fe" transform="translate(57.132 72.301)"/><path d="m287.284 410.457a9.766 9.766 0 0 1 .494 2.047c.007 1.219-.523 1.822-1.261 1.822h.281s-9.643.182-10.363-.265a.982.982 0 0 1 -.213-1.584c.3-.305 5.267-2.249 5.267-2.249" fill="#352e73" transform="translate(76.172 225.479)"/><path d="m281.885 409.958c-.494 1-5.276 2.913-4.913 3.243s2.26.424 5.072.153c2.368-.231 3.84-.806 3.961-1.438l-.265-2.769" fill="#ef5e5e" transform="translate(77.471 224.133)"/><path d="m281.156 333.6c-11.167 33.238-7.235 85.146-5.33 103.485 2.327 22.365 10.263 74.6 10.263 74.6a10.671 10.671 0 0 0 3.995-.117c.754-1.847 8.813-36.988 11.463-51.746 2.255-12.558 1.306-23.546 1.306-26.344s11.037-51.416 11.037-52.615c0 0 6.849-8.952 4.755-24.661-1.937-14.549-14.841-28.82-14.841-28.82" fill="#4348a3" transform="translate(73.267 122.406)"/><path d="m302.634 410.457a9.8 9.8 0 0 1 .491 2.047c.007 1.219-.521 1.822-1.261 1.822h.283s-9.645.182-10.366-.265a.983.983 0 0 1 -.213-1.584c.3-.305 5.267-2.249 5.267-2.249" fill="#352e73" transform="translate(95.268 225.48)"/><path d="m297.233 409.958c-.491 1-5.274 2.913-4.913 3.243s2.26.424 5.072.153c2.368-.231 3.84-.806 3.961-1.438l-.265-2.769" fill="#ef5e5e" transform="translate(96.566 224.133)"/><path d="m284.837 347.459s2.662 71.286 4.567 89.625c2.327 22.365 17.116 74.6 17.116 74.6a10.682 10.682 0 0 0 4-.117c.752-1.847 7.015-36.084 7.437-51.071.35-12.48-1.524-24.221-1.524-27.02s4.181-51.416 4.181-52.615c0 0 6.851-8.952 4.758-24.661-1.939-14.549-14.843-28.82-14.843-28.82" fill="#4348a3" transform="translate(87.279 122.406)"/><path d="m306.581 295.627c1.8-.669 6.212 2.426 14.964 5.781 3.847 4.161 3.927 13.279 4.758 21.349 1.811 17.648-2.347 38.422-1.124 45.052.29 1.571 1.589 2.388 1.589 3.829 0 3.068-9.726 7.469-22.431 7.469-10.559 0-24.349-3.285-25-5.323-.821-2.561 1.023-3.279 1.221-6.775.076-1.373 1.979-23.865.456-25.864s-6.239-6.45-6.25-12.047c-.036-16.306 13.941-29.733 21.27-31.544a59.874 59.874 0 0 1 10.547-1.927z" fill="#4a63fe" transform="translate(74.745 82.782)"/><path d="m281.763 335.473c-1.521-2-6.988-7.561-7-13.158a29.387 29.387 0 0 1 8.629-21.331" fill="none" stroke="#31319b" stroke-miterlimit="10" stroke-width=".5" transform="translate(74.745 89.563)"/><path d="m284.837 342.975s2.81 62.628 4 71.1" fill="none" stroke="#646dbc" stroke-miterlimit="10" stroke-width=".5" transform="translate(87.279 141.805)"/><path d="m300.29 349.783a16.819 16.819 0 0 1 -.191 6.67c-.3 1.326.233 3.921-.543 4.771s-1.481.738-1.946.215a14.183 14.183 0 0 1 -1.584-3.2 26.377 26.377 0 0 1 -.682-2.554s.141 1.782-.159 1.93c-.792.386-.938-1.578-1.048-2.538a7.6 7.6 0 0 1 .61-4.369c.548-1.6 3.095-4.134 3.095-4.134l4.109-9.93 4.753 1.865z" fill="#ff6d6d" transform="translate(98.743 133.934)"/><path d="m289.917 295.576s16.106 1.344 24.12 14.6c2.686 4.444 13.115 25.13 13.137 37.913.045 24.65-18.772 51.827-18.772 51.827l-3.286-2.538s6.834-37.938 6.241-43.052c-.761-6.537-17.258-20.685-18.292-31.481s-8.141-20.218-3.148-27.269z" fill="#4a63fe" transform="translate(91.41 82.833)"/><path d="m290.344 307.727a50.822 50.822 0 0 0 8.447 16.273c3.941 4.957 7.572 10.186 7.572 10.186" fill="none" stroke="#31319b" stroke-miterlimit="10" stroke-width=".5" transform="translate(94.131 97.951)"/><path d="m288.955 282.527c-3.476 1.64-9.964 14.538-10.31 16.557s.583 4.069 3.945 5.615c4.123 1.9 10.507 2.06 11.241 1.562s2.6-2.249 2.6-2.249l-7.473-21.486" fill="#352e73" transform="translate(79.492 66.598)"/><path d="m285.738 294.365-1.845 9.82a4.833 4.833 0 0 0 5.548 2.46c3.786-1.048 5.781-4.978 5.781-4.978l-1.73-10.987" fill="#ef5e5e" transform="translate(86.104 76.742)"/><path d="m296.286 303.644s-10.26 4.648-15.267-.658c-2.864-3.034 4.434-18.167 7.608-20.3s9.4.153 10.716 3.732 4.8 12.985-3.057 17.226" fill="#ef5e5e" transform="translate(81.716 65.77)"/><path d="m294.025 280.251c-.774-.1-7.751 1.465-9.991 3.618a12.329 12.329 0 0 0 -3.014 5.254s5.081 3.532 8.268 4.221c.711-2.24 3.618-4.565 4.392-4.91-1.807 2.931-2.473 4.266-2.41 5.685a13.78 13.78 0 0 0 5.765 2.583c3.021.691 5-7.922 5-8.225s-5.943-7.968-8.01-8.226z" fill="#352e73" transform="translate(82.53 63.761)"/><path d="m298.075 291.738c-.224.467-3.813 11.346-3.925 12.691s-1.091 4.91-.548 5.521c1.331 1.5 3.633 2.332 6.885 2.107s9.964-1.259 11.944-3.133c1.905-1.8-.673-17.3-2.433-20.981-1.652-3.461-4.634-6.894-7.92-6.894-3.238-3.2-12.036-1.966-16.005.586-5.646 3.633-5.159 7.837-5.009 8.876 3.889.8 13.31-2.9 13.31-2.9z" fill="#352e73" transform="translate(82.486 62.374)"/><path d="m270.9 261.389a17.834 17.834 0 0 1 17.834-17.834h30.875a17.836 17.836 0 1 1 0 35.671h-30.872a17.844 17.844 0 0 1 -4.987-.72l-6.715 4.616 1.946-6.811a17.806 17.806 0 0 1 -8.081-14.922z" fill="#9dadea" opacity=".75" transform="translate(69.943 18.11)"/><path d="m292.741 254.394a2.893 2.893 0 1 0 2.893-2.893 2.892 2.892 0 0 0 -2.893 2.893z" fill="#fff" transform="translate(97.113 27.996)"/><path d="m287.207 254.394a2.893 2.893 0 1 0 2.893-2.894 2.892 2.892 0 0 0 -2.893 2.894z" fill="#fff" transform="translate(90.227 27.996)"/><path d="m281.673 254.394a2.893 2.893 0 1 0 2.893-2.893 2.892 2.892 0 0 0 -2.893 2.893z" fill="#fff" transform="translate(83.342 27.996)"/><path d="m276.139 254.394a2.893 2.893 0 1 0 2.893-2.893 2.892 2.892 0 0 0 -2.893 2.893z" fill="#fff" transform="translate(76.457 27.996)"/></svg>