<svg height="1153.664" viewBox="0 0 1929.063 1153.664" width="1929.063" xmlns="http://www.w3.org/2000/svg" xmlns:xlink="http://www.w3.org/1999/xlink"><radialGradient id="a" cx=".477" cy=".38" gradientTransform="matrix(.69 -.723 .684 .652 -.187 .536)" gradientUnits="objectBoundingBox" r=".654"><stop offset="0" stop-color="#538bec"/><stop offset="1" stop-color="#1058d6"/></radialGradient><g transform="translate(-3748 -10336.911)"><path d="m3748 11025.092s128.707-115.969 140.2 137.47 157.173-116.61 220.8 54.118 66.877 330.168 165.557 146.208 44.621 153.977 300.993 126.033c2.366-1.162 428.919.776 431.455 0 224.777 22.126 150.22-313.351 272-164.042s59.246-366.486 191.066-244.324 126.639-176.407 201.337-123.471c-2.2 2.521 5.66-620.173 5.66-620.173h-1929.068z" fill="#ecf3ff"/><path d="m3748 10905.423s128.707-95.8 140.2 113.564 157.173-96.332 220.8 44.708 66.877 272.754 165.557 120.783 44.621 127.2 300.993 104.117c2.366-.96 428.919.641 431.455 0 224.777 18.278 150.22-258.861 272-135.517s59.246-302.757 191.066-201.838 126.639-145.731 201.337-102c-2.2 2.082 5.66-512.33 5.66-512.33h-1929.068z" fill="url(#a)"/></g></svg>